Linefont[min,mid].ufo
<glyph name="neg.-1" format="2">
	<advance width="100"/>
	<outline>
		<contour>
			<point x="-49.95" y="0.498" type="line"/>
			<point x="50.05" y="-9.502" type="line"/>
			<point x="49.95" y="-10.498" type="line"/>
			<point x="-50.05" y="-0.498" type="line"/>
		</contour>
	</outline>
</glyph>
<glyph name="neg.-10" format="2">
	<advance width="100"/>
	<outline>
		<contour>
			<point x="-49.646" y="0.354" type="line"/>
			<point x="50.354" y="-99.646" type="line"/>
			<point x="49.646" y="-100.354" type="line"/>
			<point x="-50.354" y="-0.354" type="line"/>
		</contour>
	</outline>
</glyph>
<glyph name="neg.-100" format="2">
	<advance width="100"/>
	<outline>
		<contour>
			<point x="-46.02" y="0.398" type="line"/>
			<point x="53.98" y="-999.602" type="line"/>
			<point x="46.02" y="-1000.398" type="line"/>
			<point x="-53.98" y="-0.398" type="line"/>
		</contour>
	</outline>
</glyph>
<glyph name="neg.-101" format="2">
	<advance width="100"/>
	<outline>
		<contour>
			<point x="-49.502" y="0.049" type="line"/>
			<point x="50.498" y="-1009.951" type="line"/>
			<point x="49.502" y="-1010.049" type="line"/>
			<point x="-50.498" y="-0.049" type="line"/>
		</contour>
	</outline>
</glyph>
<glyph name="neg.-102" format="2">
	<advance width="100"/>
	<outline>
		<contour>
			<point x="-46.019" y="0.39" type="line"/>
			<point x="53.981" y="-1019.61" type="line"/>
			<point x="46.019" y="-1020.39" type="line"/>
			<point x="-53.981" y="-0.39" type="line"/>
		</contour>
	</outline>
</glyph>
<glyph name="neg.-103" format="2">
	<advance width="100"/>
	<outline>
		<contour>
			<point x="-46.019" y="0.387" type="line"/>
			<point x="53.981" y="-1029.613" type="line"/>
			<point x="46.019" y="-1030.387" type="line"/>
			<point x="-53.981" y="-0.387" type="line"/>
		</contour>
	</outline>
</glyph>
<glyph name="neg.-104" format="2">
	<advance width="100"/>
	<outline>
		<contour>
			<point x="-47.511" y="0.239" type="line"/>
			<point x="52.489" y="-1039.761" type="line"/>
			<point x="47.511" y="-1040.239" type="line"/>
			<point x="-52.489" y="-0.239" type="line"/>
		</contour>
	</outline>
</glyph>
<glyph name="neg.-105" format="2">
	<advance width="100"/>
	<outline>
		<contour>
			<point x="-46.018" y="0.379" type="line"/>
			<point x="53.982" y="-1049.621" type="line"/>
			<point x="46.018" y="-1050.379" type="line"/>
			<point x="-53.982" y="-0.379" type="line"/>
		</contour>
	</outline>
</glyph>
<glyph name="neg.-106" format="2">
	<advance width="100"/>
	<outline>
		<contour>
			<point x="-46.018" y="0.376" type="line"/>
			<point x="53.982" y="-1059.624" type="line"/>
			<point x="46.018" y="-1060.376" type="line"/>
			<point x="-53.982" y="-0.376" type="line"/>
		</contour>
	</outline>
</glyph>
<glyph name="neg.-107" format="2">
	<advance width="100"/>
	<outline>
		<contour>
			<point x="-47.511" y="0.233" type="line"/>
			<point x="52.489" y="-1069.767" type="line"/>
			<point x="47.511" y="-1070.233" type="line"/>
			<point x="-52.489" y="-0.233" type="line"/>
		</contour>
	</outline>
</glyph>
<glyph name="neg.-108" format="2">
	<advance width="100"/>
	<outline>
		<contour>
			<point x="-49.502" y="0.046" type="line"/>
			<point x="50.498" y="-1079.954" type="line"/>
			<point x="49.502" y="-1080.046" type="line"/>
			<point x="-50.498" y="-0.046" type="line"/>
		</contour>
	</outline>
</glyph>
<glyph name="neg.-11" format="2">
	<advance width="100"/>
	<outline>
		<contour>
			<point x="-47.04" y="2.691" type="line"/>
			<point x="52.96" y="-107.309" type="line"/>
			<point x="47.04" y="-112.691" type="line"/>
			<point x="-52.96" y="-2.691" type="line"/>
		</contour>
	</outline>
</glyph>
<glyph name="neg.-112" format="2">
	<advance width="100"/>
	<outline>
		<contour>
			<point x="-49.502" y="0.044" type="line"/>
			<point x="50.498" y="-1119.956" type="line"/>
			<point x="49.502" y="-1120.044" type="line"/>
			<point x="-50.498" y="-0.044" type="line"/>
		</contour>
	</outline>
</glyph>
<glyph name="neg.-115" format="2">
	<advance width="100"/>
	<outline>
		<contour>
			<point x="-46.015" y="0.347" type="line"/>
			<point x="53.985" y="-1149.653" type="line"/>
			<point x="46.015" y="-1150.347" type="line"/>
			<point x="-53.985" y="-0.347" type="line"/>
		</contour>
	</outline>
</glyph>
<glyph name="neg.-116" format="2">
	<advance width="100"/>
	<outline>
		<contour>
			<point x="-46.015" y="0.344" type="line"/>
			<point x="53.985" y="-1159.656" type="line"/>
			<point x="46.015" y="-1160.344" type="line"/>
			<point x="-53.985" y="-0.344" type="line"/>
		</contour>
	</outline>
</glyph>
<glyph name="neg.-117" format="2">
	<advance width="100"/>
	<outline>
		<contour>
			<point x="-49.502" y="0.043" type="line"/>
			<point x="50.498" y="-1169.957" type="line"/>
			<point x="49.502" y="-1170.043" type="line"/>
			<point x="-50.498" y="-0.043" type="line"/>
		</contour>
	</outline>
</glyph>
<glyph name="neg.-118" format="2">
	<advance width="100"/>
	<outline>
		<contour>
			<point x="-49.502" y="0.042" type="line"/>
			<point x="50.498" y="-1179.958" type="line"/>
			<point x="49.502" y="-1180.042" type="line"/>
			<point x="-50.498" y="-0.042" type="line"/>
		</contour>
	</outline>
</glyph>
<glyph name="neg.-119" format="2">
	<advance width="100"/>
	<outline>
		<contour>
			<point x="-49.502" y="0.042" type="line"/>
			<point x="50.498" y="-1189.958" type="line"/>
			<point x="49.502" y="-1190.042" type="line"/>
			<point x="-50.498" y="-0.042" type="line"/>
		</contour>
	</outline>
</glyph>
<glyph name="neg.-12" format="2">
	<advance width="100"/>
	<outline>
		<contour>
			<point x="-46.927" y="2.561" type="line"/>
			<point x="53.073" y="-117.439" type="line"/>
			<point x="46.927" y="-122.561" type="line"/>
			<point x="-53.073" y="-2.561" type="line"/>
		</contour>
	</outline>
</glyph>
<glyph name="neg.-120" format="2">
	<advance width="100"/>
	<outline>
		<contour>
			<point x="-49.502" y="0.042" type="line"/>
			<point x="50.498" y="-1199.958" type="line"/>
			<point x="49.502" y="-1200.042" type="line"/>
			<point x="-50.498" y="-0.042" type="line"/>
		</contour>
	</outline>
</glyph>
<glyph name="neg.-121" format="2">
	<advance width="100"/>
	<outline>
		<contour>
			<point x="-46.014" y="0.329" type="line"/>
			<point x="53.986" y="-1209.671" type="line"/>
			<point x="46.014" y="-1210.329" type="line"/>
			<point x="-53.986" y="-0.329" type="line"/>
		</contour>
	</outline>
</glyph>
<glyph name="neg.-123" format="2">
	<advance width="100"/>
	<outline>
		<contour>
			<point x="-49.502" y="0.041" type="line"/>
			<point x="50.498" y="-1229.959" type="line"/>
			<point x="49.502" y="-1230.041" type="line"/>
			<point x="-50.498" y="-0.041" type="line"/>
		</contour>
	</outline>
</glyph>
<glyph name="neg.-124" format="2">
	<advance width="100"/>
	<outline>
		<contour>
			<point x="-49.502" y="0.04" type="line"/>
			<point x="50.498" y="-1239.96" type="line"/>
			<point x="49.502" y="-1240.04" type="line"/>
			<point x="-50.498" y="-0.04" type="line"/>
		</contour>
	</outline>
</glyph>
<glyph name="neg.-125" format="2">
	<advance width="100"/>
	<outline>
		<contour>
			<point x="-49.502" y="0.04" type="line"/>
			<point x="50.498" y="-1249.96" type="line"/>
			<point x="49.502" y="-1250.04" type="line"/>
			<point x="-50.498" y="-0.04" type="line"/>
		</contour>
	</outline>
</glyph>
<glyph name="neg.-126" format="2">
	<advance width="100"/>
	<outline>
		<contour>
			<point x="-47.508" y="0.198" type="line"/>
			<point x="52.492" y="-1259.802" type="line"/>
			<point x="47.508" y="-1260.198" type="line"/>
			<point x="-52.492" y="-0.198" type="line"/>
		</contour>
	</outline>
</glyph>
<glyph name="neg.-127" format="2">
	<advance width="100"/>
	<outline>
		<contour>
			<point x="-49.502" y="0.039" type="line"/>
			<point x="50.498" y="-1269.961" type="line"/>
			<point x="49.502" y="-1270.039" type="line"/>
			<point x="-50.498" y="-0.039" type="line"/>
		</contour>
	</outline>
</glyph>
<glyph name="neg.-14" format="2">
	<advance width="100"/>
	<outline>
		<contour>
			<point x="-46.745" y="2.325" type="line"/>
			<point x="53.255" y="-137.675" type="line"/>
			<point x="46.745" y="-142.325" type="line"/>
			<point x="-53.255" y="-2.325" type="line"/>
		</contour>
	</outline>
</glyph>
<glyph name="neg.-16" format="2">
	<advance width="100"/>
	<outline>
		<contour>
			<point x="-49.576" y="0.265" type="line"/>
			<point x="50.424" y="-159.735" type="line"/>
			<point x="49.576" y="-160.265" type="line"/>
			<point x="-50.424" y="-0.265" type="line"/>
		</contour>
	</outline>
</glyph>
<glyph name="neg.-17" format="2">
	<advance width="100"/>
	<outline>
		<contour>
			<point x="-49.569" y="0.254" type="line"/>
			<point x="50.431" y="-169.746" type="line"/>
			<point x="49.569" y="-170.254" type="line"/>
			<point x="-50.431" y="-0.254" type="line"/>
		</contour>
	</outline>
</glyph>
<glyph name="neg.-19" format="2">
	<advance width="100"/>
	<outline>
		<contour>
			<point x="-47.788" y="1.164" type="line"/>
			<point x="52.212" y="-188.836" type="line"/>
			<point x="47.788" y="-191.164" type="line"/>
			<point x="-52.212" y="-1.164" type="line"/>
		</contour>
	</outline>
</glyph>
<glyph name="neg.-2" format="2">
	<advance width="100"/>
	<outline>
		<contour>
			<point x="-49.216" y="3.922" type="line"/>
			<point x="50.784" y="-16.078" type="line"/>
			<point x="49.216" y="-23.922" type="line"/>
			<point x="-50.784" y="-3.922" type="line"/>
		</contour>
	</outline>
</glyph>
<glyph name="neg.-20" format="2">
	<advance width="100"/>
	<outline>
		<contour>
			<point x="-46.422" y="1.789" type="line"/>
			<point x="53.578" y="-198.211" type="line"/>
			<point x="46.422" y="-201.789" type="line"/>
			<point x="-53.578" y="-1.789" type="line"/>
		</contour>
	</outline>
</glyph>
<glyph name="neg.-21" format="2">
	<advance width="100"/>
	<outline>
		<contour>
			<point x="-47.743" y="1.075" type="line"/>
			<point x="52.257" y="-208.925" type="line"/>
			<point x="47.743" y="-211.075" type="line"/>
			<point x="-52.257" y="-1.075" type="line"/>
		</contour>
	</outline>
</glyph>
<glyph name="neg.-22" format="2">
	<advance width="100"/>
	<outline>
		<contour>
			<point x="-47.724" y="1.035" type="line"/>
			<point x="52.276" y="-218.965" type="line"/>
			<point x="47.724" y="-221.035" type="line"/>
			<point x="-52.276" y="-1.035" type="line"/>
		</contour>
	</outline>
</glyph>
<glyph name="neg.-23" format="2">
	<advance width="100"/>
	<outline>
		<contour>
			<point x="-46.332" y="1.595" type="line"/>
			<point x="53.668" y="-228.405" type="line"/>
			<point x="46.332" y="-231.595" type="line"/>
			<point x="-53.668" y="-1.595" type="line"/>
		</contour>
	</outline>
</glyph>
<glyph name="neg.-24" format="2">
	<advance width="100"/>
	<outline>
		<contour>
			<point x="-46.308" y="1.538" type="line"/>
			<point x="53.692" y="-238.462" type="line"/>
			<point x="46.308" y="-241.538" type="line"/>
			<point x="-53.692" y="-1.538" type="line"/>
		</contour>
	</outline>
</glyph>
<glyph name="neg.-26" format="2">
	<advance width="100"/>
	<outline>
		<contour>
			<point x="-49.533" y="0.179" type="line"/>
			<point x="50.467" y="-259.821" type="line"/>
			<point x="49.533" y="-260.179" type="line"/>
			<point x="-50.467" y="-0.179" type="line"/>
		</contour>
	</outline>
</glyph>
<glyph name="neg.-27" format="2">
	<advance width="100"/>
	<outline>
		<contour>
			<point x="-49.531" y="0.174" type="line"/>
			<point x="50.469" y="-269.826" type="line"/>
			<point x="49.531" y="-270.174" type="line"/>
			<point x="-50.469" y="-0.174" type="line"/>
		</contour>
	</outline>
</glyph>
<glyph name="neg.-28" format="2">
	<advance width="100"/>
	<outline>
		<contour>
			<point x="-46.233" y="1.345" type="line"/>
			<point x="53.767" y="-278.655" type="line"/>
			<point x="46.233" y="-281.345" type="line"/>
			<point x="-53.767" y="-1.345" type="line"/>
		</contour>
	</outline>
</glyph>
<glyph name="neg.-30" format="2">
	<advance width="100"/>
	<outline>
		<contour>
			<point x="-46.205" y="1.265" type="line"/>
			<point x="53.795" y="-298.735" type="line"/>
			<point x="46.205" y="-301.265" type="line"/>
			<point x="-53.795" y="-1.265" type="line"/>
		</contour>
	</outline>
</glyph>
<glyph name="neg.-31" format="2">
	<advance width="100"/>
	<outline>
		<contour>
			<point x="-49.524" y="0.154" type="line"/>
			<point x="50.476" y="-309.846" type="line"/>
			<point x="49.524" y="-310.154" type="line"/>
			<point x="-50.476" y="-0.154" type="line"/>
		</contour>
	</outline>
</glyph>
<glyph name="neg.-32" format="2">
	<advance width="100"/>
	<outline>
		<contour>
			<point x="-46.182" y="1.193" type="line"/>
			<point x="53.818" y="-318.807" type="line"/>
			<point x="46.182" y="-321.193" type="line"/>
			<point x="-53.818" y="-1.193" type="line"/>
		</contour>
	</outline>
</glyph>
<glyph name="neg.-33" format="2">
	<advance width="100"/>
	<outline>
		<contour>
			<point x="-49.521" y="0.145" type="line"/>
			<point x="50.479" y="-329.855" type="line"/>
			<point x="49.521" y="-330.145" type="line"/>
			<point x="-50.479" y="-0.145" type="line"/>
		</contour>
	</outline>
</glyph>
<glyph name="neg.-34" format="2">
	<advance width="100"/>
	<outline>
		<contour>
			<point x="-46.163" y="1.129" type="line"/>
			<point x="53.837" y="-338.871" type="line"/>
			<point x="46.163" y="-341.129" type="line"/>
			<point x="-53.837" y="-1.129" type="line"/>
		</contour>
	</outline>
</glyph>
<glyph name="neg.-35" format="2">
	<advance width="100"/>
	<outline>
		<contour>
			<point x="-49.519" y="0.137" type="line"/>
			<point x="50.481" y="-349.863" type="line"/>
			<point x="49.519" y="-350.137" type="line"/>
			<point x="-50.481" y="-0.137" type="line"/>
		</contour>
	</outline>
</glyph>
<glyph name="neg.-36" format="2">
	<advance width="100"/>
	<outline>
		<contour>
			<point x="-49.518" y="0.134" type="line"/>
			<point x="50.482" y="-359.866" type="line"/>
			<point x="49.518" y="-360.134" type="line"/>
			<point x="-50.482" y="-0.134" type="line"/>
		</contour>
	</outline>
</glyph>
<glyph name="neg.-38" format="2">
	<advance width="100"/>
	<outline>
		<contour>
			<point x="-49.516" y="0.127" type="line"/>
			<point x="50.484" y="-379.873" type="line"/>
			<point x="49.516" y="-380.127" type="line"/>
			<point x="-50.484" y="-0.127" type="line"/>
		</contour>
	</outline>
</glyph>
<glyph name="neg.-39" format="2">
	<advance width="100"/>
	<outline>
		<contour>
			<point x="-46.125" y="0.994" type="line"/>
			<point x="53.875" y="-389.006" type="line"/>
			<point x="46.125" y="-390.994" type="line"/>
			<point x="-53.875" y="-0.994" type="line"/>
		</contour>
	</outline>
</glyph>
<glyph name="neg.-4" format="2">
	<advance width="100"/>
	<outline>
		<contour>
			<point x="-48.514" y="3.714" type="line"/>
			<point x="51.486" y="-36.286" type="line"/>
			<point x="48.514" y="-43.714" type="line"/>
			<point x="-51.486" y="-3.714" type="line"/>
		</contour>
	</outline>
</glyph>
<glyph name="neg.-40" format="2">
	<advance width="100"/>
	<outline>
		<contour>
			<point x="-49.515" y="0.121" type="line"/>
			<point x="50.485" y="-399.879" type="line"/>
			<point x="49.515" y="-400.121" type="line"/>
			<point x="-50.485" y="-0.121" type="line"/>
		</contour>
	</outline>
</glyph>
<glyph name="neg.-43" format="2">
	<advance width="100"/>
	<outline>
		<contour>
			<point x="-46.104" y="0.906" type="line"/>
			<point x="53.896" y="-429.094" type="line"/>
			<point x="46.104" y="-430.906" type="line"/>
			<point x="-53.896" y="-0.906" type="line"/>
		</contour>
	</outline>
</glyph>
<glyph name="neg.-44" format="2">
	<advance width="100"/>
	<outline>
		<contour>
			<point x="-47.562" y="0.554" type="line"/>
			<point x="52.438" y="-439.446" type="line"/>
			<point x="47.562" y="-440.554" type="line"/>
			<point x="-52.438" y="-0.554" type="line"/>
		</contour>
	</outline>
</glyph>
<glyph name="neg.-46" format="2">
	<advance width="100"/>
	<outline>
		<contour>
			<point x="-46.091" y="0.85" type="line"/>
			<point x="53.909" y="-459.15" type="line"/>
			<point x="46.091" y="-460.85" type="line"/>
			<point x="-53.909" y="-0.85" type="line"/>
		</contour>
	</outline>
</glyph>
<glyph name="neg.-47" format="2">
	<advance width="100"/>
	<outline>
		<contour>
			<point x="-46.088" y="0.832" type="line"/>
			<point x="53.912" y="-469.168" type="line"/>
			<point x="46.088" y="-470.832" type="line"/>
			<point x="-53.912" y="-0.832" type="line"/>
		</contour>
	</outline>
</glyph>
<glyph name="neg.-48" format="2">
	<advance width="100"/>
	<outline>
		<contour>
			<point x="-47.553" y="0.51" type="line"/>
			<point x="52.447" y="-479.49" type="line"/>
			<point x="47.553" y="-480.51" type="line"/>
			<point x="-52.447" y="-0.51" type="line"/>
		</contour>
	</outline>
</glyph>
<glyph name="neg.-49" format="2">
	<advance width="100"/>
	<outline>
		<contour>
			<point x="-49.51" y="0.1" type="line"/>
			<point x="50.49" y="-489.9" type="line"/>
			<point x="49.51" y="-490.1" type="line"/>
			<point x="-50.49" y="-0.1" type="line"/>
		</contour>
	</outline>
</glyph>
<glyph name="neg.-5" format="2">
	<advance width="100"/>
	<outline>
		<contour>
			<point x="-49.776" y="0.447" type="line"/>
			<point x="50.224" y="-49.553" type="line"/>
			<point x="49.776" y="-50.447" type="line"/>
			<point x="-50.224" y="-0.447" type="line"/>
		</contour>
	</outline>
</glyph>
<glyph name="neg.-50" format="2">
	<advance width="100"/>
	<outline>
		<contour>
			<point x="-49.51" y="0.098" type="line"/>
			<point x="50.49" y="-499.902" type="line"/>
			<point x="49.51" y="-500.098" type="line"/>
			<point x="-50.49" y="-0.098" type="line"/>
		</contour>
	</outline>
</glyph>
<glyph name="neg.-51" format="2">
	<advance width="100"/>
	<outline>
		<contour>
			<point x="-49.509" y="0.096" type="line"/>
			<point x="50.491" y="-509.904" type="line"/>
			<point x="49.509" y="-510.096" type="line"/>
			<point x="-50.491" y="-0.096" type="line"/>
		</contour>
	</outline>
</glyph>
<glyph name="neg.-52" format="2">
	<advance width="100"/>
	<outline>
		<contour>
			<point x="-46.072" y="0.755" type="line"/>
			<point x="53.928" y="-519.245" type="line"/>
			<point x="46.072" y="-520.755" type="line"/>
			<point x="-53.928" y="-0.755" type="line"/>
		</contour>
	</outline>
</glyph>
<glyph name="neg.-53" format="2">
	<advance width="100"/>
	<outline>
		<contour>
			<point x="-46.069" y="0.742" type="line"/>
			<point x="53.931" y="-529.258" type="line"/>
			<point x="46.069" y="-530.742" type="line"/>
			<point x="-53.931" y="-0.742" type="line"/>
		</contour>
	</outline>
</glyph>
<glyph name="neg.-55" format="2">
	<advance width="100"/>
	<outline>
		<contour>
			<point x="-49.508" y="0.089" type="line"/>
			<point x="50.492" y="-549.911" type="line"/>
			<point x="49.508" y="-550.089" type="line"/>
			<point x="-50.492" y="-0.089" type="line"/>
		</contour>
	</outline>
</glyph>
<glyph name="neg.-56" format="2">
	<advance width="100"/>
	<outline>
		<contour>
			<point x="-49.508" y="0.088" type="line"/>
			<point x="50.492" y="-559.912" type="line"/>
			<point x="49.508" y="-560.088" type="line"/>
			<point x="-50.492" y="-0.088" type="line"/>
		</contour>
	</outline>
</glyph>
<glyph name="neg.-57" format="2">
	<advance width="100"/>
	<outline>
		<contour>
			<point x="-46.06" y="0.691" type="line"/>
			<point x="53.94" y="-569.309" type="line"/>
			<point x="46.06" y="-570.691" type="line"/>
			<point x="-53.94" y="-0.691" type="line"/>
		</contour>
	</outline>
</glyph>
<glyph name="neg.-58" format="2">
	<advance width="100"/>
	<outline>
		<contour>
			<point x="-46.058" y="0.68" type="line"/>
			<point x="53.942" y="-579.32" type="line"/>
			<point x="46.058" y="-580.68" type="line"/>
			<point x="-53.942" y="-0.68" type="line"/>
		</contour>
	</outline>
</glyph>
<glyph name="neg.-59" format="2">
	<advance width="100"/>
	<outline>
		<contour>
			<point x="-47.535" y="0.418" type="line"/>
			<point x="52.465" y="-589.582" type="line"/>
			<point x="47.535" y="-590.418" type="line"/>
			<point x="-52.465" y="-0.418" type="line"/>
		</contour>
	</outline>
</glyph>
<glyph name="neg.-6" format="2">
	<advance width="100"/>
	<outline>
		<contour>
			<point x="-49.743" y="0.429" type="line"/>
			<point x="50.257" y="-59.571" type="line"/>
			<point x="49.743" y="-60.429" type="line"/>
			<point x="-50.257" y="-0.429" type="line"/>
		</contour>
	</outline>
</glyph>
<glyph name="neg.-61" format="2">
	<advance width="100"/>
	<outline>
		<contour>
			<point x="-49.507" y="0.081" type="line"/>
			<point x="50.493" y="-609.919" type="line"/>
			<point x="49.507" y="-610.081" type="line"/>
			<point x="-50.493" y="-0.081" type="line"/>
		</contour>
	</outline>
</glyph>
<glyph name="neg.-62" format="2">
	<advance width="100"/>
	<outline>
		<contour>
			<point x="-46.051" y="0.637" type="line"/>
			<point x="53.949" y="-619.363" type="line"/>
			<point x="46.051" y="-620.637" type="line"/>
			<point x="-53.949" y="-0.637" type="line"/>
		</contour>
	</outline>
</glyph>
<glyph name="neg.-63" format="2">
	<advance width="100"/>
	<outline>
		<contour>
			<point x="-46.049" y="0.627" type="line"/>
			<point x="53.951" y="-629.373" type="line"/>
			<point x="46.049" y="-630.627" type="line"/>
			<point x="-53.951" y="-0.627" type="line"/>
		</contour>
	</outline>
</glyph>
<glyph name="neg.-64" format="2">
	<advance width="100"/>
	<outline>
		<contour>
			<point x="-46.048" y="0.618" type="line"/>
			<point x="53.952" y="-639.382" type="line"/>
			<point x="46.048" y="-640.618" type="line"/>
			<point x="-53.952" y="-0.618" type="line"/>
		</contour>
	</outline>
</glyph>
<glyph name="neg.-65" format="2">
	<advance width="100"/>
	<outline>
		<contour>
			<point x="-46.047" y="0.608" type="line"/>
			<point x="53.953" y="-649.392" type="line"/>
			<point x="46.047" y="-650.608" type="line"/>
			<point x="-53.953" y="-0.608" type="line"/>
		</contour>
	</outline>
</glyph>
<glyph name="neg.-66" format="2">
	<advance width="100"/>
	<outline>
		<contour>
			<point x="-46.045" y="0.599" type="line"/>
			<point x="53.955" y="-659.401" type="line"/>
			<point x="46.045" y="-660.599" type="line"/>
			<point x="-53.955" y="-0.599" type="line"/>
		</contour>
	</outline>
</glyph>
<glyph name="neg.-67" format="2">
	<advance width="100"/>
	<outline>
		<contour>
			<point x="-46.044" y="0.59" type="line"/>
			<point x="53.956" y="-669.41" type="line"/>
			<point x="46.044" y="-670.59" type="line"/>
			<point x="-53.956" y="-0.59" type="line"/>
		</contour>
	</outline>
</glyph>
<glyph name="neg.-68" format="2">
	<advance width="100"/>
	<outline>
		<contour>
			<point x="-46.043" y="0.582" type="line"/>
			<point x="53.957" y="-679.418" type="line"/>
			<point x="46.043" y="-680.582" type="line"/>
			<point x="-53.957" y="-0.582" type="line"/>
		</contour>
	</outline>
</glyph>
<glyph name="neg.-69" format="2">
	<advance width="100"/>
	<outline>
		<contour>
			<point x="-49.505" y="0.072" type="line"/>
			<point x="50.495" y="-689.928" type="line"/>
			<point x="49.505" y="-690.072" type="line"/>
			<point x="-50.495" y="-0.072" type="line"/>
		</contour>
	</outline>
</glyph>
<glyph name="neg.-7" format="2">
	<advance width="100"/>
	<outline>
		<contour>
			<point x="-49.713" y="0.41" type="line"/>
			<point x="50.287" y="-69.59" type="line"/>
			<point x="49.713" y="-70.41" type="line"/>
			<point x="-50.287" y="-0.41" type="line"/>
		</contour>
	</outline>
</glyph>
<glyph name="neg.-70" format="2">
	<advance width="100"/>
	<outline>
		<contour>
			<point x="-47.525" y="0.354" type="line"/>
			<point x="52.475" y="-699.646" type="line"/>
			<point x="47.525" y="-700.354" type="line"/>
			<point x="-52.475" y="-0.354" type="line"/>
		</contour>
	</outline>
</glyph>
<glyph name="neg.-71" format="2">
	<advance width="100"/>
	<outline>
		<contour>
			<point x="-46.039" y="0.558" type="line"/>
			<point x="53.961" y="-709.442" type="line"/>
			<point x="46.039" y="-710.558" type="line"/>
			<point x="-53.961" y="-0.558" type="line"/>
		</contour>
	</outline>
</glyph>
<glyph name="neg.-73" format="2">
	<advance width="100"/>
	<outline>
		<contour>
			<point x="-49.505" y="0.068" type="line"/>
			<point x="50.495" y="-729.932" type="line"/>
			<point x="49.505" y="-730.068" type="line"/>
			<point x="-50.495" y="-0.068" type="line"/>
		</contour>
	</outline>
</glyph>
<glyph name="neg.-74" format="2">
	<advance width="100"/>
	<outline>
		<contour>
			<point x="-49.505" y="0.067" type="line"/>
			<point x="50.495" y="-739.933" type="line"/>
			<point x="49.505" y="-740.067" type="line"/>
			<point x="-50.495" y="-0.067" type="line"/>
		</contour>
	</outline>
</glyph>
<glyph name="neg.-75" format="2">
	<advance width="100"/>
	<outline>
		<contour>
			<point x="-49.504" y="0.066" type="line"/>
			<point x="50.496" y="-749.934" type="line"/>
			<point x="49.504" y="-750.066" type="line"/>
			<point x="-50.496" y="-0.066" type="line"/>
		</contour>
	</outline>
</glyph>
<glyph name="neg.-76" format="2">
	<advance width="100"/>
	<outline>
		<contour>
			<point x="-46.034" y="0.522" type="line"/>
			<point x="53.966" y="-759.478" type="line"/>
			<point x="46.034" y="-760.522" type="line"/>
			<point x="-53.966" y="-0.522" type="line"/>
		</contour>
	</outline>
</glyph>
<glyph name="neg.-77" format="2">
	<advance width="100"/>
	<outline>
		<contour>
			<point x="-47.521" y="0.322" type="line"/>
			<point x="52.479" y="-769.678" type="line"/>
			<point x="47.521" y="-770.322" type="line"/>
			<point x="-52.479" y="-0.322" type="line"/>
		</contour>
	</outline>
</glyph>
<glyph name="neg.-78" format="2">
	<advance width="100"/>
	<outline>
		<contour>
			<point x="-49.504" y="0.064" type="line"/>
			<point x="50.496" y="-779.936" type="line"/>
			<point x="49.504" y="-780.064" type="line"/>
			<point x="-50.496" y="-0.064" type="line"/>
		</contour>
	</outline>
</glyph>
<glyph name="neg.-8" format="2">
	<advance width="100"/>
	<outline>
		<contour>
			<point x="-47.501" y="3.123" type="line"/>
			<point x="52.499" y="-76.877" type="line"/>
			<point x="47.501" y="-83.123" type="line"/>
			<point x="-52.499" y="-3.123" type="line"/>
		</contour>
	</outline>
</glyph>
<glyph name="neg.-80" format="2">
	<advance width="100"/>
	<outline>
		<contour>
			<point x="-47.519" y="0.31" type="line"/>
			<point x="52.481" y="-799.69" type="line"/>
			<point x="47.519" y="-800.31" type="line"/>
			<point x="-52.481" y="-0.31" type="line"/>
		</contour>
	</outline>
</glyph>
<glyph name="neg.-81" format="2">
	<advance width="100"/>
	<outline>
		<contour>
			<point x="-49.504" y="0.061" type="line"/>
			<point x="50.496" y="-809.939" type="line"/>
			<point x="49.504" y="-810.061" type="line"/>
			<point x="-50.496" y="-0.061" type="line"/>
		</contour>
	</outline>
</glyph>
<glyph name="neg.-82" format="2">
	<advance width="100"/>
	<outline>
		<contour>
			<point x="-47.518" y="0.303" type="line"/>
			<point x="52.482" y="-819.697" type="line"/>
			<point x="47.518" y="-820.303" type="line"/>
			<point x="-52.482" y="-0.303" type="line"/>
		</contour>
	</outline>
</glyph>
<glyph name="neg.-83" format="2">
	<advance width="100"/>
	<outline>
		<contour>
			<point x="-47.518" y="0.299" type="line"/>
			<point x="52.482" y="-829.701" type="line"/>
			<point x="47.518" y="-830.299" type="line"/>
			<point x="-52.482" y="-0.299" type="line"/>
		</contour>
	</outline>
</glyph>
<glyph name="neg.-84" format="2">
	<advance width="100"/>
	<outline>
		<contour>
			<point x="-46.028" y="0.473" type="line"/>
			<point x="53.972" y="-839.527" type="line"/>
			<point x="46.028" y="-840.473" type="line"/>
			<point x="-53.972" y="-0.473" type="line"/>
		</contour>
	</outline>
</glyph>
<glyph name="neg.-86" format="2">
	<advance width="100"/>
	<outline>
		<contour>
			<point x="-49.503" y="0.058" type="line"/>
			<point x="50.497" y="-859.942" type="line"/>
			<point x="49.503" y="-860.058" type="line"/>
			<point x="-50.497" y="-0.058" type="line"/>
		</contour>
	</outline>
</glyph>
<glyph name="neg.-87" format="2">
	<advance width="100"/>
	<outline>
		<contour>
			<point x="-47.516" y="0.285" type="line"/>
			<point x="52.484" y="-869.715" type="line"/>
			<point x="47.516" y="-870.285" type="line"/>
			<point x="-52.484" y="-0.285" type="line"/>
		</contour>
	</outline>
</glyph>
<glyph name="neg.-89" format="2">
	<advance width="100"/>
	<outline>
		<contour>
			<point x="-46.025" y="0.447" type="line"/>
			<point x="53.975" y="-889.553" type="line"/>
			<point x="46.025" y="-890.447" type="line"/>
			<point x="-53.975" y="-0.447" type="line"/>
		</contour>
	</outline>
</glyph>
<glyph name="neg.-9" format="2">
	<advance width="100"/>
	<outline>
		<contour>
			<point x="-48.328" y="1.858" type="line"/>
			<point x="51.672" y="-88.142" type="line"/>
			<point x="48.328" y="-91.858" type="line"/>
			<point x="-51.672" y="-1.858" type="line"/>
		</contour>
	</outline>
</glyph>
<glyph name="neg.-90" format="2">
	<advance width="100"/>
	<outline>
		<contour>
			<point x="-47.515" y="0.276" type="line"/>
			<point x="52.485" y="-899.724" type="line"/>
			<point x="47.515" y="-900.276" type="line"/>
			<point x="-52.485" y="-0.276" type="line"/>
		</contour>
	</outline>
</glyph>
<glyph name="neg.-91" format="2">
	<advance width="100"/>
	<outline>
		<contour>
			<point x="-49.503" y="0.055" type="line"/>
			<point x="50.497" y="-909.945" type="line"/>
			<point x="49.503" y="-910.055" type="line"/>
			<point x="-50.497" y="-0.055" type="line"/>
		</contour>
	</outline>
</glyph>
<glyph name="neg.-92" format="2">
	<advance width="100"/>
	<outline>
		<contour>
			<point x="-46.023" y="0.432" type="line"/>
			<point x="53.977" y="-919.568" type="line"/>
			<point x="46.023" y="-920.432" type="line"/>
			<point x="-53.977" y="-0.432" type="line"/>
		</contour>
	</outline>
</glyph>
<glyph name="neg.-93" format="2">
	<advance width="100"/>
	<outline>
		<contour>
			<point x="-46.023" y="0.428" type="line"/>
			<point x="53.977" y="-929.572" type="line"/>
			<point x="46.023" y="-930.428" type="line"/>
			<point x="-53.977" y="-0.428" type="line"/>
		</contour>
	</outline>
</glyph>
<glyph name="neg.-95" format="2">
	<advance width="100"/>
	<outline>
		<contour>
			<point x="-47.514" y="0.262" type="line"/>
			<point x="52.486" y="-949.738" type="line"/>
			<point x="47.514" y="-950.262" type="line"/>
			<point x="-52.486" y="-0.262" type="line"/>
		</contour>
	</outline>
</glyph>
<glyph name="neg.-96" format="2">
	<advance width="100"/>
	<outline>
		<contour>
			<point x="-46.022" y="0.414" type="line"/>
			<point x="53.978" y="-959.586" type="line"/>
			<point x="46.022" y="-960.414" type="line"/>
			<point x="-53.978" y="-0.414" type="line"/>
		</contour>
	</outline>
</glyph>
<glyph name="neg.-97" format="2">
	<advance width="100"/>
	<outline>
		<contour>
			<point x="-49.503" y="0.051" type="line"/>
			<point x="50.497" y="-969.949" type="line"/>
			<point x="49.503" y="-970.051" type="line"/>
			<point x="-50.497" y="-0.051" type="line"/>
		</contour>
	</outline>
</glyph>
<glyph name="neg.-98" format="2">
	<advance width="100"/>
	<outline>
		<contour>
			<point x="-49.503" y="0.051" type="line"/>
			<point x="50.497" y="-979.949" type="line"/>
			<point x="49.503" y="-980.051" type="line"/>
			<point x="-50.497" y="-0.051" type="line"/>
		</contour>
	</outline>
</glyph>
<glyph name="neg.-99" format="2">
	<advance width="100"/>
	<outline>
		<contour>
			<point x="-46.02" y="0.402" type="line"/>
			<point x="53.98" y="-989.598" type="line"/>
			<point x="46.02" y="-990.402" type="line"/>
			<point x="-53.98" y="-0.402" type="line"/>
		</contour>
	</outline>
</glyph>
<glyph name="pos.1" format="2">
	<advance width="100"/>
	<outline>
		<contour>
			<point x="-50.398" y="3.98" type="line"/>
			<point x="49.602" y="13.98" type="line"/>
			<point x="50.398" y="6.02" type="line"/>
			<point x="-49.602" y="-3.98" type="line"/>
		</contour>
	</outline>
</glyph>
<glyph name="pos.10" format="2">
	<advance width="100"/>
	<outline>
		<contour>
			<point x="-51.768" y="1.768" type="line"/>
			<point x="48.232" y="101.768" type="line"/>
			<point x="51.768" y="98.232" type="line"/>
			<point x="-48.232" y="-1.768" type="line"/>
		</contour>
	</outline>
</glyph>
<glyph name="pos.100" format="2">
	<advance width="100"/>
	<outline>
		<contour>
			<point x="-52.488" y="0.249" type="line"/>
			<point x="47.512" y="1000.249" type="line"/>
			<point x="52.488" y="999.751" type="line"/>
			<point x="-47.512" y="-0.249" type="line"/>
		</contour>
	</outline>
</glyph>
<glyph name="pos.102" format="2">
	<advance width="100"/>
	<outline>
		<contour>
			<point x="-50.498" y="0.049" type="line"/>
			<point x="49.502" y="1020.049" type="line"/>
			<point x="50.498" y="1019.951" type="line"/>
			<point x="-49.502" y="-0.049" type="line"/>
		</contour>
	</outline>
</glyph>
<glyph name="pos.103" format="2">
	<advance width="100"/>
	<outline>
		<contour>
			<point x="-50.498" y="0.048" type="line"/>
			<point x="49.502" y="1030.048" type="line"/>
			<point x="50.498" y="1029.952" type="line"/>
			<point x="-49.502" y="-0.048" type="line"/>
		</contour>
	</outline>
</glyph>
<glyph name="pos.104" format="2">
	<advance width="100"/>
	<outline>
		<contour>
			<point x="-50.498" y="0.048" type="line"/>
			<point x="49.502" y="1040.048" type="line"/>
			<point x="50.498" y="1039.952" type="line"/>
			<point x="-49.502" y="-0.048" type="line"/>
		</contour>
	</outline>
</glyph>
<glyph name="pos.105" format="2">
	<advance width="100"/>
	<outline>
		<contour>
			<point x="-50.498" y="0.047" type="line"/>
			<point x="49.502" y="1050.047" type="line"/>
			<point x="50.498" y="1049.953" type="line"/>
			<point x="-49.502" y="-0.047" type="line"/>
		</contour>
	</outline>
</glyph>
<glyph name="pos.107" format="2">
	<advance width="100"/>
	<outline>
		<contour>
			<point x="-50.498" y="0.047" type="line"/>
			<point x="49.502" y="1070.047" type="line"/>
			<point x="50.498" y="1069.953" type="line"/>
			<point x="-49.502" y="-0.047" type="line"/>
		</contour>
	</outline>
</glyph>
<glyph name="pos.108" format="2">
	<advance width="100"/>
	<outline>
		<contour>
			<point x="-52.489" y="0.23" type="line"/>
			<point x="47.511" y="1080.23" type="line"/>
			<point x="52.489" y="1079.77" type="line"/>
			<point x="-47.511" y="-0.23" type="line"/>
		</contour>
	</outline>
</glyph>
<glyph name="pos.109" format="2">
	<advance width="100"/>
	<outline>
		<contour>
			<point x="-50.498" y="0.046" type="line"/>
			<point x="49.502" y="1090.046" type="line"/>
			<point x="50.498" y="1089.954" type="line"/>
			<point x="-49.502" y="-0.046" type="line"/>
		</contour>
	</outline>
</glyph>
<glyph name="pos.110" format="2">
	<advance width="100"/>
	<outline>
		<contour>
			<point x="-50.498" y="0.045" type="line"/>
			<point x="49.502" y="1100.045" type="line"/>
			<point x="50.498" y="1099.955" type="line"/>
			<point x="-49.502" y="-0.045" type="line"/>
		</contour>
	</outline>
</glyph>
<glyph name="pos.111" format="2">
	<advance width="100"/>
	<outline>
		<contour>
			<point x="-50.498" y="0.045" type="line"/>
			<point x="49.502" y="1110.045" type="line"/>
			<point x="50.498" y="1109.955" type="line"/>
			<point x="-49.502" y="-0.045" type="line"/>
		</contour>
	</outline>
</glyph>
<glyph name="pos.112" format="2">
	<advance width="100"/>
	<outline>
		<contour>
			<point x="-53.984" y="0.356" type="line"/>
			<point x="46.016" y="1120.356" type="line"/>
			<point x="53.984" y="1119.644" type="line"/>
			<point x="-46.016" y="-0.356" type="line"/>
		</contour>
	</outline>
</glyph>
<glyph name="pos.113" format="2">
	<advance width="100"/>
	<outline>
		<contour>
			<point x="-50.498" y="0.044" type="line"/>
			<point x="49.502" y="1130.044" type="line"/>
			<point x="50.498" y="1129.956" type="line"/>
			<point x="-49.502" y="-0.044" type="line"/>
		</contour>
	</outline>
</glyph>
<glyph name="pos.114" format="2">
	<advance width="100"/>
	<outline>
		<contour>
			<point x="-53.985" y="0.35" type="line"/>
			<point x="46.015" y="1140.35" type="line"/>
			<point x="53.985" y="1139.65" type="line"/>
			<point x="-46.015" y="-0.35" type="line"/>
		</contour>
	</outline>
</glyph>
<glyph name="pos.116" format="2">
	<advance width="100"/>
	<outline>
		<contour>
			<point x="-50.498" y="0.043" type="line"/>
			<point x="49.502" y="1160.043" type="line"/>
			<point x="50.498" y="1159.957" type="line"/>
			<point x="-49.502" y="-0.043" type="line"/>
		</contour>
	</outline>
</glyph>
<glyph name="pos.118" format="2">
	<advance width="100"/>
	<outline>
		<contour>
			<point x="-53.986" y="0.338" type="line"/>
			<point x="46.014" y="1180.338" type="line"/>
			<point x="53.986" y="1179.662" type="line"/>
			<point x="-46.014" y="-0.338" type="line"/>
		</contour>
	</outline>
</glyph>
<glyph name="pos.12" format="2">
	<advance width="100"/>
	<outline>
		<contour>
			<point x="-50.384" y="0.32" type="line"/>
			<point x="49.616" y="120.32" type="line"/>
			<point x="50.384" y="119.68" type="line"/>
			<point x="-49.616" y="-0.32" type="line"/>
		</contour>
	</outline>
</glyph>
<glyph name="pos.122" format="2">
	<advance width="100"/>
	<outline>
		<contour>
			<point x="-50.498" y="0.041" type="line"/>
			<point x="49.502" y="1220.041" type="line"/>
			<point x="50.498" y="1219.959" type="line"/>
			<point x="-49.502" y="-0.041" type="line"/>
		</contour>
	</outline>
</glyph>
<glyph name="pos.123" format="2">
	<advance width="100"/>
	<outline>
		<contour>
			<point x="-53.987" y="0.324" type="line"/>
			<point x="46.013" y="1230.324" type="line"/>
			<point x="53.987" y="1229.676" type="line"/>
			<point x="-46.013" y="-0.324" type="line"/>
		</contour>
	</outline>
</glyph>
<glyph name="pos.124" format="2">
	<advance width="100"/>
	<outline>
		<contour>
			<point x="-52.492" y="0.201" type="line"/>
			<point x="47.508" y="1240.201" type="line"/>
			<point x="52.492" y="1239.799" type="line"/>
			<point x="-47.508" y="-0.201" type="line"/>
		</contour>
	</outline>
</glyph>
<glyph name="pos.126" format="2">
	<advance width="100"/>
	<outline>
		<contour>
			<point x="-53.987" y="0.316" type="line"/>
			<point x="46.013" y="1260.316" type="line"/>
			<point x="53.987" y="1259.684" type="line"/>
			<point x="-46.013" y="-0.316" type="line"/>
		</contour>
	</outline>
</glyph>
<glyph name="pos.13" format="2">
	<advance width="100"/>
	<outline>
		<contour>
			<point x="-53.17" y="2.439" type="line"/>
			<point x="46.83" y="132.439" type="line"/>
			<point x="53.17" y="127.561" type="line"/>
			<point x="-46.83" y="-2.439" type="line"/>
		</contour>
	</outline>
</glyph>
<glyph name="pos.14" format="2">
	<advance width="100"/>
	<outline>
		<contour>
			<point x="-50.407" y="0.291" type="line"/>
			<point x="49.593" y="140.291" type="line"/>
			<point x="50.407" y="139.709" type="line"/>
			<point x="-49.593" y="-0.291" type="line"/>
		</contour>
	</outline>
</glyph>
<glyph name="pos.15" format="2">
	<advance width="100"/>
	<outline>
		<contour>
			<point x="-53.328" y="2.219" type="line"/>
			<point x="46.672" y="152.219" type="line"/>
			<point x="53.328" y="147.781" type="line"/>
			<point x="-46.672" y="-2.219" type="line"/>
		</contour>
	</outline>
</glyph>
<glyph name="pos.16" format="2">
	<advance width="100"/>
	<outline>
		<contour>
			<point x="-53.392" y="2.12" type="line"/>
			<point x="46.608" y="162.12" type="line"/>
			<point x="53.392" y="157.88" type="line"/>
			<point x="-46.608" y="-2.12" type="line"/>
		</contour>
	</outline>
</glyph>
<glyph name="pos.17" format="2">
	<advance width="100"/>
	<outline>
		<contour>
			<point x="-53.448" y="2.028" type="line"/>
			<point x="46.552" y="172.028" type="line"/>
			<point x="53.448" y="167.972" type="line"/>
			<point x="-46.552" y="-2.028" type="line"/>
		</contour>
	</outline>
</glyph>
<glyph name="pos.18" format="2">
	<advance width="100"/>
	<outline>
		<contour>
			<point x="-53.497" y="1.943" type="line"/>
			<point x="46.503" y="181.943" type="line"/>
			<point x="53.497" y="178.057" type="line"/>
			<point x="-46.503" y="-1.943" type="line"/>
		</contour>
	</outline>
</glyph>
<glyph name="pos.19" format="2">
	<advance width="100"/>
	<outline>
		<contour>
			<point x="-53.54" y="1.863" type="line"/>
			<point x="46.46" y="191.863" type="line"/>
			<point x="53.54" y="188.137" type="line"/>
			<point x="-46.46" y="-1.863" type="line"/>
		</contour>
	</outline>
</glyph>
<glyph name="pos.20" format="2">
	<advance width="100"/>
	<outline>
		<contour>
			<point x="-50.447" y="0.224" type="line"/>
			<point x="49.553" y="200.224" type="line"/>
			<point x="50.447" y="199.776" type="line"/>
			<point x="-49.553" y="-0.224" type="line"/>
		</contour>
	</outline>
</glyph>
<glyph name="pos.21" format="2">
	<advance width="100"/>
	<outline>
		<contour>
			<point x="-53.611" y="1.72" type="line"/>
			<point x="46.389" y="211.72" type="line"/>
			<point x="53.611" y="208.28" type="line"/>
			<point x="-46.389" y="-1.72" type="line"/>
		</contour>
	</outline>
</glyph>
<glyph name="pos.22" format="2">
	<advance width="100"/>
	<outline>
		<contour>
			<point x="-53.641" y="1.655" type="line"/>
			<point x="46.359" y="221.655" type="line"/>
			<point x="53.641" y="218.345" type="line"/>
			<point x="-46.359" y="-1.655" type="line"/>
		</contour>
	</outline>
</glyph>
<glyph name="pos.23" format="2">
	<advance width="100"/>
	<outline>
		<contour>
			<point x="-50.459" y="0.199" type="line"/>
			<point x="49.541" y="230.199" type="line"/>
			<point x="50.459" y="229.801" type="line"/>
			<point x="-49.541" y="-0.199" type="line"/>
		</contour>
	</outline>
</glyph>
<glyph name="pos.24" format="2">
	<advance width="100"/>
	<outline>
		<contour>
			<point x="-50.462" y="0.192" type="line"/>
			<point x="49.538" y="240.192" type="line"/>
			<point x="50.462" y="239.808" type="line"/>
			<point x="-49.538" y="-0.192" type="line"/>
		</contour>
	</outline>
</glyph>
<glyph name="pos.25" format="2">
	<advance width="100"/>
	<outline>
		<contour>
			<point x="-53.714" y="1.486" type="line"/>
			<point x="46.286" y="251.486" type="line"/>
			<point x="53.714" y="248.514" type="line"/>
			<point x="-46.286" y="-1.486" type="line"/>
		</contour>
	</outline>
</glyph>
<glyph name="pos.26" format="2">
	<advance width="100"/>
	<outline>
		<contour>
			<point x="-53.733" y="1.436" type="line"/>
			<point x="46.267" y="261.436" type="line"/>
			<point x="53.733" y="258.564" type="line"/>
			<point x="-46.267" y="-1.436" type="line"/>
		</contour>
	</outline>
</glyph>
<glyph name="pos.28" format="2">
	<advance width="100"/>
	<outline>
		<contour>
			<point x="-52.354" y="0.841" type="line"/>
			<point x="47.646" y="280.841" type="line"/>
			<point x="52.354" y="279.159" type="line"/>
			<point x="-47.646" y="-0.841" type="line"/>
		</contour>
	</outline>
</glyph>
<glyph name="pos.29" format="2">
	<advance width="100"/>
	<outline>
		<contour>
			<point x="-53.781" y="1.304" type="line"/>
			<point x="46.219" y="291.304" type="line"/>
			<point x="53.781" y="288.696" type="line"/>
			<point x="-46.219" y="-1.304" type="line"/>
		</contour>
	</outline>
</glyph>
<glyph name="pos.3" format="2">
	<advance width="100"/>
	<outline>
		<contour>
			<point x="-51.149" y="3.831" type="line"/>
			<point x="48.851" y="33.831" type="line"/>
			<point x="51.149" y="26.169" type="line"/>
			<point x="-48.851" y="-3.831" type="line"/>
		</contour>
	</outline>
</glyph>
<glyph name="pos.30" format="2">
	<advance width="100"/>
	<outline>
		<contour>
			<point x="-52.372" y="0.791" type="line"/>
			<point x="47.628" y="300.791" type="line"/>
			<point x="52.372" y="299.209" type="line"/>
			<point x="-47.628" y="-0.791" type="line"/>
		</contour>
	</outline>
</glyph>
<glyph name="pos.31" format="2">
	<advance width="100"/>
	<outline>
		<contour>
			<point x="-52.379" y="0.768" type="line"/>
			<point x="47.621" y="310.768" type="line"/>
			<point x="52.379" y="309.232" type="line"/>
			<point x="-47.621" y="-0.768" type="line"/>
		</contour>
	</outline>
</glyph>
<glyph name="pos.32" format="2">
	<advance width="100"/>
	<outline>
		<contour>
			<point x="-50.477" y="0.149" type="line"/>
			<point x="49.523" y="320.149" type="line"/>
			<point x="50.477" y="319.851" type="line"/>
			<point x="-49.523" y="-0.149" type="line"/>
		</contour>
	</outline>
</glyph>
<glyph name="pos.33" format="2">
	<advance width="100"/>
	<outline>
		<contour>
			<point x="-53.828" y="1.16" type="line"/>
			<point x="46.172" y="331.16" type="line"/>
			<point x="53.828" y="328.84" type="line"/>
			<point x="-46.172" y="-1.16" type="line"/>
		</contour>
	</outline>
</glyph>
<glyph name="pos.35" format="2">
	<advance width="100"/>
	<outline>
		<contour>
			<point x="-53.846" y="1.099" type="line"/>
			<point x="46.154" y="351.099" type="line"/>
			<point x="53.846" y="348.901" type="line"/>
			<point x="-46.154" y="-1.099" type="line"/>
		</contour>
	</outline>
</glyph>
<glyph name="pos.37" format="2">
	<advance width="100"/>
	<outline>
		<contour>
			<point x="-50.483" y="0.13" type="line"/>
			<point x="49.517" y="370.13" type="line"/>
			<point x="50.483" y="369.87" type="line"/>
			<point x="-49.517" y="-0.13" type="line"/>
		</contour>
	</outline>
</glyph>
<glyph name="pos.4" format="2">
	<advance width="100"/>
	<outline>
		<contour>
			<point x="-50.928" y="2.321" type="line"/>
			<point x="49.072" y="42.321" type="line"/>
			<point x="50.928" y="37.679" type="line"/>
			<point x="-49.072" y="-2.321" type="line"/>
		</contour>
	</outline>
</glyph>
<glyph name="pos.40" format="2">
	<advance width="100"/>
	<outline>
		<contour>
			<point x="-53.881" y="0.97" type="line"/>
			<point x="46.119" y="400.97" type="line"/>
			<point x="53.881" y="399.03" type="line"/>
			<point x="-46.119" y="-0.97" type="line"/>
		</contour>
	</outline>
</glyph>
<glyph name="pos.41" format="2">
	<advance width="100"/>
	<outline>
		<contour>
			<point x="-50.486" y="0.118" type="line"/>
			<point x="49.514" y="410.118" type="line"/>
			<point x="50.486" y="409.882" type="line"/>
			<point x="-49.514" y="-0.118" type="line"/>
		</contour>
	</outline>
</glyph>
<glyph name="pos.42" format="2">
	<advance width="100"/>
	<outline>
		<contour>
			<point x="-53.891" y="0.926" type="line"/>
			<point x="46.109" y="420.926" type="line"/>
			<point x="53.891" y="419.074" type="line"/>
			<point x="-46.109" y="-0.926" type="line"/>
		</contour>
	</outline>
</glyph>
<glyph name="pos.43" format="2">
	<advance width="100"/>
	<outline>
		<contour>
			<point x="-52.435" y="0.566" type="line"/>
			<point x="47.565" y="430.566" type="line"/>
			<point x="52.435" y="429.434" type="line"/>
			<point x="-47.565" y="-0.566" type="line"/>
		</contour>
	</outline>
</glyph>
<glyph name="pos.44" format="2">
	<advance width="100"/>
	<outline>
		<contour>
			<point x="-53.901" y="0.886" type="line"/>
			<point x="46.099" y="440.886" type="line"/>
			<point x="53.901" y="439.114" type="line"/>
			<point x="-46.099" y="-0.886" type="line"/>
		</contour>
	</outline>
</glyph>
<glyph name="pos.45" format="2">
	<advance width="100"/>
	<outline>
		<contour>
			<point x="-50.488" y="0.108" type="line"/>
			<point x="49.512" y="450.108" type="line"/>
			<point x="50.488" y="449.892" type="line"/>
			<point x="-49.512" y="-0.108" type="line"/>
		</contour>
	</outline>
</glyph>
<glyph name="pos.47" format="2">
	<advance width="100"/>
	<outline>
		<contour>
			<point x="-50.489" y="0.104" type="line"/>
			<point x="49.511" y="470.104" type="line"/>
			<point x="50.489" y="469.896" type="line"/>
			<point x="-49.511" y="-0.104" type="line"/>
		</contour>
	</outline>
</glyph>
<glyph name="pos.48" format="2">
	<advance width="100"/>
	<outline>
		<contour>
			<point x="-50.489" y="0.102" type="line"/>
			<point x="49.511" y="480.102" type="line"/>
			<point x="50.489" y="479.898" type="line"/>
			<point x="-49.511" y="-0.102" type="line"/>
		</contour>
	</outline>
</glyph>
<glyph name="pos.49" format="2">
	<advance width="100"/>
	<outline>
		<contour>
			<point x="-52.45" y="0.5" type="line"/>
			<point x="47.55" y="490.5" type="line"/>
			<point x="52.45" y="489.5" type="line"/>
			<point x="-47.55" y="-0.5" type="line"/>
		</contour>
	</outline>
</glyph>
<glyph name="pos.5" format="2">
	<advance width="100"/>
	<outline>
		<contour>
			<point x="-51.789" y="3.578" type="line"/>
			<point x="48.211" y="53.578" type="line"/>
			<point x="51.789" y="46.422" type="line"/>
			<point x="-48.211" y="-3.578" type="line"/>
		</contour>
	</outline>
</glyph>
<glyph name="pos.51" format="2">
	<advance width="100"/>
	<outline>
		<contour>
			<point x="-52.453" y="0.481" type="line"/>
			<point x="47.547" y="510.481" type="line"/>
			<point x="52.453" y="509.519" type="line"/>
			<point x="-47.547" y="-0.481" type="line"/>
		</contour>
	</outline>
</glyph>
<glyph name="pos.52" format="2">
	<advance width="100"/>
	<outline>
		<contour>
			<point x="-50.491" y="0.094" type="line"/>
			<point x="49.509" y="520.094" type="line"/>
			<point x="50.491" y="519.906" type="line"/>
			<point x="-49.509" y="-0.094" type="line"/>
		</contour>
	</outline>
</glyph>
<glyph name="pos.53" format="2">
	<advance width="100"/>
	<outline>
		<contour>
			<point x="-50.491" y="0.093" type="line"/>
			<point x="49.509" y="530.093" type="line"/>
			<point x="50.491" y="529.907" type="line"/>
			<point x="-49.509" y="-0.093" type="line"/>
		</contour>
	</outline>
</glyph>
<glyph name="pos.54" format="2">
	<advance width="100"/>
	<outline>
		<contour>
			<point x="-53.933" y="0.728" type="line"/>
			<point x="46.067" y="540.728" type="line"/>
			<point x="53.933" y="539.272" type="line"/>
			<point x="-46.067" y="-0.728" type="line"/>
		</contour>
	</outline>
</glyph>
<glyph name="pos.55" format="2">
	<advance width="100"/>
	<outline>
		<contour>
			<point x="-53.935" y="0.716" type="line"/>
			<point x="46.065" y="550.716" type="line"/>
			<point x="53.935" y="549.284" type="line"/>
			<point x="-46.065" y="-0.716" type="line"/>
		</contour>
	</outline>
</glyph>
<glyph name="pos.56" format="2">
	<advance width="100"/>
	<outline>
		<contour>
			<point x="-53.938" y="0.703" type="line"/>
			<point x="46.062" y="560.703" type="line"/>
			<point x="53.938" y="559.297" type="line"/>
			<point x="-46.062" y="-0.703" type="line"/>
		</contour>
	</outline>
</glyph>
<glyph name="pos.58" format="2">
	<advance width="100"/>
	<outline>
		<contour>
			<point x="-50.493" y="0.085" type="line"/>
			<point x="49.507" y="580.085" type="line"/>
			<point x="50.493" y="579.915" type="line"/>
			<point x="-49.507" y="-0.085" type="line"/>
		</contour>
	</outline>
</glyph>
<glyph name="pos.59" format="2">
	<advance width="100"/>
	<outline>
		<contour>
			<point x="-53.944" y="0.668" type="line"/>
			<point x="46.056" y="590.668" type="line"/>
			<point x="53.944" y="589.332" type="line"/>
			<point x="-46.056" y="-0.668" type="line"/>
		</contour>
	</outline>
</glyph>
<glyph name="pos.6" format="2">
	<advance width="100"/>
	<outline>
		<contour>
			<point x="-52.058" y="3.43" type="line"/>
			<point x="47.942" y="63.43" type="line"/>
			<point x="52.058" y="56.57" type="line"/>
			<point x="-47.942" y="-3.43" type="line"/>
		</contour>
	</outline>
</glyph>
<glyph name="pos.60" format="2">
	<advance width="100"/>
	<outline>
		<contour>
			<point x="-53.946" y="0.658" type="line"/>
			<point x="46.054" y="600.658" type="line"/>
			<point x="53.946" y="599.342" type="line"/>
			<point x="-46.054" y="-0.658" type="line"/>
		</contour>
	</outline>
</glyph>
<glyph name="pos.61" format="2">
	<advance width="100"/>
	<outline>
		<contour>
			<point x="-53.947" y="0.647" type="line"/>
			<point x="46.053" y="610.647" type="line"/>
			<point x="53.947" y="609.353" type="line"/>
			<point x="-46.053" y="-0.647" type="line"/>
		</contour>
	</outline>
</glyph>
<glyph name="pos.62" format="2">
	<advance width="100"/>
	<outline>
		<contour>
			<point x="-50.494" y="0.08" type="line"/>
			<point x="49.506" y="620.08" type="line"/>
			<point x="50.494" y="619.92" type="line"/>
			<point x="-49.506" y="-0.08" type="line"/>
		</contour>
	</outline>
</glyph>
<glyph name="pos.63" format="2">
	<advance width="100"/>
	<outline>
		<contour>
			<point x="-50.494" y="0.078" type="line"/>
			<point x="49.506" y="630.078" type="line"/>
			<point x="50.494" y="629.922" type="line"/>
			<point x="-49.506" y="-0.078" type="line"/>
		</contour>
	</outline>
</glyph>
<glyph name="pos.64" format="2">
	<advance width="100"/>
	<outline>
		<contour>
			<point x="-50.494" y="0.077" type="line"/>
			<point x="49.506" y="640.077" type="line"/>
			<point x="50.494" y="639.923" type="line"/>
			<point x="-49.506" y="-0.077" type="line"/>
		</contour>
	</outline>
</glyph>
<glyph name="pos.66" format="2">
	<advance width="100"/>
	<outline>
		<contour>
			<point x="-50.494" y="0.075" type="line"/>
			<point x="49.506" y="660.075" type="line"/>
			<point x="50.494" y="659.925" type="line"/>
			<point x="-49.506" y="-0.075" type="line"/>
		</contour>
	</outline>
</glyph>
<glyph name="pos.68" format="2">
	<advance width="100"/>
	<outline>
		<contour>
			<point x="-50.495" y="0.073" type="line"/>
			<point x="49.505" y="680.073" type="line"/>
			<point x="50.495" y="679.927" type="line"/>
			<point x="-49.505" y="-0.073" type="line"/>
		</contour>
	</outline>
</glyph>
<glyph name="pos.69" format="2">
	<advance width="100"/>
	<outline>
		<contour>
			<point x="-53.959" y="0.574" type="line"/>
			<point x="46.041" y="690.574" type="line"/>
			<point x="53.959" y="689.426" type="line"/>
			<point x="-46.041" y="-0.574" type="line"/>
		</contour>
	</outline>
</glyph>
<glyph name="pos.70" format="2">
	<advance width="100"/>
	<outline>
		<contour>
			<point x="-53.96" y="0.566" type="line"/>
			<point x="46.04" y="700.566" type="line"/>
			<point x="53.96" y="699.434" type="line"/>
			<point x="-46.04" y="-0.566" type="line"/>
		</contour>
	</outline>
</glyph>
<glyph name="pos.71" format="2">
	<advance width="100"/>
	<outline>
		<contour>
			<point x="-52.476" y="0.349" type="line"/>
			<point x="47.524" y="710.349" type="line"/>
			<point x="52.476" y="709.651" type="line"/>
			<point x="-47.524" y="-0.349" type="line"/>
		</contour>
	</outline>
</glyph>
<glyph name="pos.72" format="2">
	<advance width="100"/>
	<outline>
		<contour>
			<point x="-50.495" y="0.069" type="line"/>
			<point x="49.505" y="720.069" type="line"/>
			<point x="50.495" y="719.931" type="line"/>
			<point x="-49.505" y="-0.069" type="line"/>
		</contour>
	</outline>
</glyph>
<glyph name="pos.73" format="2">
	<advance width="100"/>
	<outline>
		<contour>
			<point x="-53.963" y="0.543" type="line"/>
			<point x="46.037" y="730.543" type="line"/>
			<point x="53.963" y="729.457" type="line"/>
			<point x="-46.037" y="-0.543" type="line"/>
		</contour>
	</outline>
</glyph>
<glyph name="pos.74" format="2">
	<advance width="100"/>
	<outline>
		<contour>
			<point x="-50.495" y="0.067" type="line"/>
			<point x="49.505" y="740.067" type="line"/>
			<point x="50.495" y="739.933" type="line"/>
			<point x="-49.505" y="-0.067" type="line"/>
		</contour>
	</outline>
</glyph>
<glyph name="pos.75" format="2">
	<advance width="100"/>
	<outline>
		<contour>
			<point x="-50.496" y="0.066" type="line"/>
			<point x="49.504" y="750.066" type="line"/>
			<point x="50.496" y="749.934" type="line"/>
			<point x="-49.504" y="-0.066" type="line"/>
		</contour>
	</outline>
</glyph>
<glyph name="pos.77" format="2">
	<advance width="100"/>
	<outline>
		<contour>
			<point x="-50.496" y="0.064" type="line"/>
			<point x="49.504" y="770.064" type="line"/>
			<point x="50.496" y="769.936" type="line"/>
			<point x="-49.504" y="-0.064" type="line"/>
		</contour>
	</outline>
</glyph>
<glyph name="pos.79" format="2">
	<advance width="100"/>
	<outline>
		<contour>
			<point x="-53.968" y="0.502" type="line"/>
			<point x="46.032" y="790.502" type="line"/>
			<point x="53.968" y="789.498" type="line"/>
			<point x="-46.032" y="-0.502" type="line"/>
		</contour>
	</outline>
</glyph>
<glyph name="pos.80" format="2">
	<advance width="100"/>
	<outline>
		<contour>
			<point x="-50.496" y="0.062" type="line"/>
			<point x="49.504" y="800.062" type="line"/>
			<point x="50.496" y="799.938" type="line"/>
			<point x="-49.504" y="-0.062" type="line"/>
		</contour>
	</outline>
</glyph>
<glyph name="pos.81" format="2">
	<advance width="100"/>
	<outline>
		<contour>
			<point x="-53.97" y="0.49" type="line"/>
			<point x="46.03" y="810.49" type="line"/>
			<point x="53.97" y="809.51" type="line"/>
			<point x="-46.03" y="-0.49" type="line"/>
		</contour>
	</outline>
</glyph>
<glyph name="pos.82" format="2">
	<advance width="100"/>
	<outline>
		<contour>
			<point x="-50.496" y="0.061" type="line"/>
			<point x="49.504" y="820.061" type="line"/>
			<point x="50.496" y="819.939" type="line"/>
			<point x="-49.504" y="-0.061" type="line"/>
		</contour>
	</outline>
</glyph>
<glyph name="pos.83" format="2">
	<advance width="100"/>
	<outline>
		<contour>
			<point x="-50.496" y="0.06" type="line"/>
			<point x="49.504" y="830.06" type="line"/>
			<point x="50.496" y="829.94" type="line"/>
			<point x="-49.504" y="-0.06" type="line"/>
		</contour>
	</outline>
</glyph>
<glyph name="pos.84" format="2">
	<advance width="100"/>
	<outline>
		<contour>
			<point x="-50.496" y="0.059" type="line"/>
			<point x="49.504" y="840.059" type="line"/>
			<point x="50.496" y="839.941" type="line"/>
			<point x="-49.504" y="-0.059" type="line"/>
		</contour>
	</outline>
</glyph>
<glyph name="pos.85" format="2">
	<advance width="100"/>
	<outline>
		<contour>
			<point x="-53.973" y="0.467" type="line"/>
			<point x="46.027" y="850.467" type="line"/>
			<point x="53.973" y="849.533" type="line"/>
			<point x="-46.027" y="-0.467" type="line"/>
		</contour>
	</outline>
</glyph>
<glyph name="pos.87" format="2">
	<advance width="100"/>
	<outline>
		<contour>
			<point x="-53.974" y="0.457" type="line"/>
			<point x="46.026" y="870.457" type="line"/>
			<point x="53.974" y="869.543" type="line"/>
			<point x="-46.026" y="-0.457" type="line"/>
		</contour>
	</outline>
</glyph>
<glyph name="pos.88" format="2">
	<advance width="100"/>
	<outline>
		<contour>
			<point x="-52.484" y="0.282" type="line"/>
			<point x="47.516" y="880.282" type="line"/>
			<point x="52.484" y="879.718" type="line"/>
			<point x="-47.516" y="-0.282" type="line"/>
		</contour>
	</outline>
</glyph>
<glyph name="pos.9" format="2">
	<advance width="100"/>
	<outline>
		<contour>
			<point x="-50.334" y="0.372" type="line"/>
			<point x="49.666" y="90.372" type="line"/>
			<point x="50.334" y="89.628" type="line"/>
			<point x="-49.666" y="-0.372" type="line"/>
		</contour>
	</outline>
</glyph>
<glyph name="pos.90" format="2">
	<advance width="100"/>
	<outline>
		<contour>
			<point x="-53.976" y="0.442" type="line"/>
			<point x="46.024" y="900.442" type="line"/>
			<point x="53.976" y="899.558" type="line"/>
			<point x="-46.024" y="-0.442" type="line"/>
		</contour>
	</outline>
</glyph>
<glyph name="pos.94" format="2">
	<advance width="100"/>
	<outline>
		<contour>
			<point x="-53.978" y="0.423" type="line"/>
			<point x="46.022" y="940.423" type="line"/>
			<point x="53.978" y="939.577" type="line"/>
			<point x="-46.022" y="-0.423" type="line"/>
		</contour>
	</outline>
</glyph>
<glyph name="pos.95" format="2">
	<advance width="100"/>
	<outline>
		<contour>
			<point x="-53.978" y="0.419" type="line"/>
			<point x="46.022" y="950.419" type="line"/>
			<point x="53.978" y="949.581" type="line"/>
			<point x="-46.022" y="-0.419" type="line"/>
		</contour>
	</outline>
</glyph>
<glyph name="pos.96" format="2">
	<advance width="100"/>
	<outline>
		<contour>
			<point x="-50.497" y="0.052" type="line"/>
			<point x="49.503" y="960.052" type="line"/>
			<point x="50.497" y="959.948" type="line"/>
			<point x="-49.503" y="-0.052" type="line"/>
		</contour>
	</outline>
</glyph>
<glyph name="pos.97" format="2">
	<advance width="100"/>
	<outline>
		<contour>
			<point x="-53.979" y="0.41" type="line"/>
			<point x="46.021" y="970.41" type="line"/>
			<point x="53.979" y="969.59" type="line"/>
			<point x="-46.021" y="-0.41" type="line"/>
		</contour>
	</outline>
</glyph>
<glyph name="pos.98" format="2">
	<advance width="100"/>
	<outline>
		<contour>
			<point x="-53.979" y="0.406" type="line"/>
			<point x="46.021" y="980.406" type="line"/>
			<point x="53.979" y="979.594" type="line"/>
			<point x="-46.021" y="-0.406" type="line"/>
		</contour>
	</outline>
</glyph>
<glyph name="pos.99" format="2">
	<advance width="100"/>
	<outline>
		<contour>
			<point x="-50.497" y="0.05" type="line"/>
			<point x="49.503" y="990.05" type="line"/>
			<point x="50.497" y="989.95" type="line"/>
			<point x="-49.503" y="-0.05" type="line"/>
		</contour>
	</outline>
</glyph>
<glyph name="to-1" format="2">
	<advance width="100"/>
	<outline>
		<contour>
			<point x="-49.801" y="1.99" type="line"/>
			<point x="50.199" y="-8.01" type="line"/>
			<point x="49.801" y="-11.99" type="line"/>
			<point x="-50.199" y="-1.99" type="line"/>
		</contour>
	</outline>
</glyph>
<glyph name="to-101" format="2">
	<advance width="100"/>
	<outline>
		<contour>
			<point x="-47.512" y="0.246" type="line"/>
			<point x="52.488" y="-1009.754" type="line"/>
			<point x="47.512" y="-1010.246" type="line"/>
			<point x="-52.488" y="-0.246" type="line"/>
		</contour>
	</outline>
</glyph>
<glyph name="to-102" format="2">
	<advance width="100"/>
	<outline>
		<contour>
			<point x="-48.01" y="0.195" type="line"/>
			<point x="51.99" y="-1019.805" type="line"/>
			<point x="48.01" y="-1020.195" type="line"/>
			<point x="-51.99" y="-0.195" type="line"/>
		</contour>
	</outline>
</glyph>
<glyph name="to-105" format="2">
	<advance width="100"/>
	<outline>
		<contour>
			<point x="-47.511" y="0.237" type="line"/>
			<point x="52.489" y="-1049.763" type="line"/>
			<point x="47.511" y="-1050.237" type="line"/>
			<point x="-52.489" y="-0.237" type="line"/>
		</contour>
	</outline>
</glyph>
<glyph name="to-107" format="2">
	<advance width="100"/>
	<outline>
		<contour>
			<point x="-48.009" y="0.186" type="line"/>
			<point x="51.991" y="-1069.814" type="line"/>
			<point x="48.009" y="-1070.186" type="line"/>
			<point x="-51.991" y="-0.186" type="line"/>
		</contour>
	</outline>
</glyph>
<glyph name="to-110" format="2">
	<advance width="100"/>
	<outline>
		<contour>
			<point x="-47.51" y="0.226" type="line"/>
			<point x="52.49" y="-1099.774" type="line"/>
			<point x="47.51" y="-1100.226" type="line"/>
			<point x="-52.49" y="-0.226" type="line"/>
		</contour>
	</outline>
</glyph>
<glyph name="to-112" format="2">
	<advance width="100"/>
	<outline>
		<contour>
			<point x="-48.008" y="0.178" type="line"/>
			<point x="51.992" y="-1119.822" type="line"/>
			<point x="48.008" y="-1120.178" type="line"/>
			<point x="-51.992" y="-0.178" type="line"/>
		</contour>
	</outline>
</glyph>
<glyph name="to-113" format="2">
	<advance width="100"/>
	<outline>
		<contour>
			<point x="-47.51" y="0.22" type="line"/>
			<point x="52.49" y="-1129.78" type="line"/>
			<point x="47.51" y="-1130.22" type="line"/>
			<point x="-52.49" y="-0.22" type="line"/>
		</contour>
	</outline>
</glyph>
<glyph name="to-117" format="2">
	<advance width="100"/>
	<outline>
		<contour>
			<point x="-48.007" y="0.17" type="line"/>
			<point x="51.993" y="-1169.83" type="line"/>
			<point x="48.007" y="-1170.17" type="line"/>
			<point x="-51.993" y="-0.17" type="line"/>
		</contour>
	</outline>
</glyph>
<glyph name="to-118" format="2">
	<advance width="100"/>
	<outline>
		<contour>
			<point x="-47.509" y="0.211" type="line"/>
			<point x="52.491" y="-1179.789" type="line"/>
			<point x="47.509" y="-1180.211" type="line"/>
			<point x="-52.491" y="-0.211" type="line"/>
		</contour>
	</outline>
</glyph>
<glyph name="to-119" format="2">
	<advance width="100"/>
	<outline>
		<contour>
			<point x="-48.007" y="0.167" type="line"/>
			<point x="51.993" y="-1189.833" type="line"/>
			<point x="48.007" y="-1190.167" type="line"/>
			<point x="-51.993" y="-0.167" type="line"/>
		</contour>
	</outline>
</glyph>
<glyph name="to-121" format="2">
	<advance width="100"/>
	<outline>
		<contour>
			<point x="-48.007" y="0.165" type="line"/>
			<point x="51.993" y="-1209.835" type="line"/>
			<point x="48.007" y="-1210.165" type="line"/>
			<point x="-51.993" y="-0.165" type="line"/>
		</contour>
	</outline>
</glyph>
<glyph name="to-122" format="2">
	<advance width="100"/>
	<outline>
		<contour>
			<point x="-48.007" y="0.163" type="line"/>
			<point x="51.993" y="-1219.837" type="line"/>
			<point x="48.007" y="-1220.163" type="line"/>
			<point x="-51.993" y="-0.163" type="line"/>
		</contour>
	</outline>
</glyph>
<glyph name="to-125" format="2">
	<advance width="100"/>
	<outline>
		<contour>
			<point x="-48.006" y="0.159" type="line"/>
			<point x="51.994" y="-1249.841" type="line"/>
			<point x="48.006" y="-1250.159" type="line"/>
			<point x="-51.994" y="-0.159" type="line"/>
		</contour>
	</outline>
</glyph>
<glyph name="to-126" format="2">
	<advance width="100"/>
	<outline>
		<contour>
			<point x="-48.006" y="0.158" type="line"/>
			<point x="51.994" y="-1259.842" type="line"/>
			<point x="48.006" y="-1260.158" type="line"/>
			<point x="-51.994" y="-0.158" type="line"/>
		</contour>
	</outline>
</glyph>
<glyph name="to-127" format="2">
	<advance width="100"/>
	<outline>
		<contour>
			<point x="-48.006" y="0.157" type="line"/>
			<point x="51.994" y="-1269.843" type="line"/>
			<point x="48.006" y="-1270.157" type="line"/>
			<point x="-51.994" y="-0.157" type="line"/>
		</contour>
	</outline>
</glyph>
<glyph name="to-13" format="2">
	<advance width="100"/>
	<outline>
		<contour>
			<point x="-48.018" y="1.524" type="line"/>
			<point x="51.982" y="-128.476" type="line"/>
			<point x="48.018" y="-131.524" type="line"/>
			<point x="-51.982" y="-1.524" type="line"/>
		</contour>
	</outline>
</glyph>
<glyph name="to-14" format="2">
	<advance width="100"/>
	<outline>
		<contour>
			<point x="-48.373" y="1.162" type="line"/>
			<point x="51.627" y="-138.838" type="line"/>
			<point x="48.373" y="-141.162" type="line"/>
			<point x="-51.627" y="-1.162" type="line"/>
		</contour>
	</outline>
</glyph>
<glyph name="to-15" format="2">
	<advance width="100"/>
	<outline>
		<contour>
			<point x="-48.336" y="1.109" type="line"/>
			<point x="51.664" y="-148.891" type="line"/>
			<point x="48.336" y="-151.109" type="line"/>
			<point x="-51.664" y="-1.109" type="line"/>
		</contour>
	</outline>
</glyph>
<glyph name="to-16" format="2">
	<advance width="100"/>
	<outline>
		<contour>
			<point x="-48.304" y="1.06" type="line"/>
			<point x="51.696" y="-158.94" type="line"/>
			<point x="48.304" y="-161.06" type="line"/>
			<point x="-51.696" y="-1.06" type="line"/>
		</contour>
	</outline>
</glyph>
<glyph name="to-17" format="2">
	<advance width="100"/>
	<outline>
		<contour>
			<point x="-48.276" y="1.014" type="line"/>
			<point x="51.724" y="-168.986" type="line"/>
			<point x="48.276" y="-171.014" type="line"/>
			<point x="-51.724" y="-1.014" type="line"/>
		</contour>
	</outline>
</glyph>
<glyph name="to-18" format="2">
	<advance width="100"/>
	<outline>
		<contour>
			<point x="-47.815" y="1.214" type="line"/>
			<point x="52.185" y="-178.786" type="line"/>
			<point x="47.815" y="-181.214" type="line"/>
			<point x="-52.185" y="-1.214" type="line"/>
		</contour>
	</outline>
</glyph>
<glyph name="to-19" format="2">
	<advance width="100"/>
	<outline>
		<contour>
			<point x="-48.23" y="0.931" type="line"/>
			<point x="51.77" y="-189.069" type="line"/>
			<point x="48.23" y="-190.931" type="line"/>
			<point x="-51.77" y="-0.931" type="line"/>
		</contour>
	</outline>
</glyph>
<glyph name="to-2" format="2">
	<advance width="100"/>
	<outline>
		<contour>
			<point x="-49.608" y="1.961" type="line"/>
			<point x="50.392" y="-18.039" type="line"/>
			<point x="49.608" y="-21.961" type="line"/>
			<point x="-50.392" y="-1.961" type="line"/>
		</contour>
	</outline>
</glyph>
<glyph name="to-20" format="2">
	<advance width="100"/>
	<outline>
		<contour>
			<point x="-48.211" y="0.894" type="line"/>
			<point x="51.789" y="-199.106" type="line"/>
			<point x="48.211" y="-200.894" type="line"/>
			<point x="-51.789" y="-0.894" type="line"/>
		</contour>
	</outline>
</glyph>
<glyph name="to-23" format="2">
	<advance width="100"/>
	<outline>
		<contour>
			<point x="-48.166" y="0.797" type="line"/>
			<point x="51.834" y="-229.203" type="line"/>
			<point x="48.166" y="-230.797" type="line"/>
			<point x="-51.834" y="-0.797" type="line"/>
		</contour>
	</outline>
</glyph>
<glyph name="to-25" format="2">
	<advance width="100"/>
	<outline>
		<contour>
			<point x="-48.143" y="0.743" type="line"/>
			<point x="51.857" y="-249.257" type="line"/>
			<point x="48.143" y="-250.743" type="line"/>
			<point x="-51.857" y="-0.743" type="line"/>
		</contour>
	</outline>
</glyph>
<glyph name="to-26" format="2">
	<advance width="100"/>
	<outline>
		<contour>
			<point x="-47.667" y="0.897" type="line"/>
			<point x="52.333" y="-259.103" type="line"/>
			<point x="47.667" y="-260.897" type="line"/>
			<point x="-52.333" y="-0.897" type="line"/>
		</contour>
	</outline>
</glyph>
<glyph name="to-28" format="2">
	<advance width="100"/>
	<outline>
		<contour>
			<point x="-48.117" y="0.673" type="line"/>
			<point x="51.883" y="-279.327" type="line"/>
			<point x="48.117" y="-280.673" type="line"/>
			<point x="-51.883" y="-0.673" type="line"/>
		</contour>
	</outline>
</glyph>
<glyph name="to-29" format="2">
	<advance width="100"/>
	<outline>
		<contour>
			<point x="-48.109" y="0.652" type="line"/>
			<point x="51.891" y="-289.348" type="line"/>
			<point x="48.109" y="-290.652" type="line"/>
			<point x="-51.891" y="-0.652" type="line"/>
		</contour>
	</outline>
</glyph>
<glyph name="to-3" format="2">
	<advance width="100"/>
	<outline>
		<contour>
			<point x="-49.282" y="2.395" type="line"/>
			<point x="50.718" y="-27.605" type="line"/>
			<point x="49.282" y="-32.395" type="line"/>
			<point x="-50.718" y="-2.395" type="line"/>
		</contour>
	</outline>
</glyph>
<glyph name="to-30" format="2">
	<advance width="100"/>
	<outline>
		<contour>
			<point x="-48.103" y="0.632" type="line"/>
			<point x="51.897" y="-299.368" type="line"/>
			<point x="48.103" y="-300.632" type="line"/>
			<point x="-51.897" y="-0.632" type="line"/>
		</contour>
	</outline>
</glyph>
<glyph name="to-32" format="2">
	<advance width="100"/>
	<outline>
		<contour>
			<point x="-48.091" y="0.597" type="line"/>
			<point x="51.909" y="-319.403" type="line"/>
			<point x="48.091" y="-320.597" type="line"/>
			<point x="-51.909" y="-0.597" type="line"/>
		</contour>
	</outline>
</glyph>
<glyph name="to-33" format="2">
	<advance width="100"/>
	<outline>
		<contour>
			<point x="-48.086" y="0.58" type="line"/>
			<point x="51.914" y="-329.42" type="line"/>
			<point x="48.086" y="-330.58" type="line"/>
			<point x="-51.914" y="-0.58" type="line"/>
		</contour>
	</outline>
</glyph>
<glyph name="to-34" format="2">
	<advance width="100"/>
	<outline>
		<contour>
			<point x="-47.602" y="0.705" type="line"/>
			<point x="52.398" y="-339.295" type="line"/>
			<point x="47.602" y="-340.705" type="line"/>
			<point x="-52.398" y="-0.705" type="line"/>
		</contour>
	</outline>
</glyph>
<glyph name="to-36" format="2">
	<advance width="100"/>
	<outline>
		<contour>
			<point x="-48.073" y="0.535" type="line"/>
			<point x="51.927" y="-359.465" type="line"/>
			<point x="48.073" y="-360.535" type="line"/>
			<point x="-51.927" y="-0.535" type="line"/>
		</contour>
	</outline>
</glyph>
<glyph name="to-38" format="2">
	<advance width="100"/>
	<outline>
		<contour>
			<point x="-48.066" y="0.509" type="line"/>
			<point x="51.934" y="-379.491" type="line"/>
			<point x="48.066" y="-380.509" type="line"/>
			<point x="-51.934" y="-0.509" type="line"/>
		</contour>
	</outline>
</glyph>
<glyph name="to-39" format="2">
	<advance width="100"/>
	<outline>
		<contour>
			<point x="-48.063" y="0.497" type="line"/>
			<point x="51.937" y="-389.503" type="line"/>
			<point x="48.063" y="-390.497" type="line"/>
			<point x="-51.937" y="-0.497" type="line"/>
		</contour>
	</outline>
</glyph>
<glyph name="to-4" format="2">
	<advance width="100"/>
	<outline>
		<contour>
			<point x="-49.257" y="1.857" type="line"/>
			<point x="50.743" y="-38.143" type="line"/>
			<point x="49.257" y="-41.857" type="line"/>
			<point x="-50.743" y="-1.857" type="line"/>
		</contour>
	</outline>
</glyph>
<glyph name="to-41" format="2">
	<advance width="100"/>
	<outline>
		<contour>
			<point x="-47.571" y="0.592" type="line"/>
			<point x="52.429" y="-409.408" type="line"/>
			<point x="47.571" y="-410.592" type="line"/>
			<point x="-52.429" y="-0.592" type="line"/>
		</contour>
	</outline>
</glyph>
<glyph name="to-44" format="2">
	<advance width="100"/>
	<outline>
		<contour>
			<point x="-48.05" y="0.443" type="line"/>
			<point x="51.95" y="-439.557" type="line"/>
			<point x="48.05" y="-440.443" type="line"/>
			<point x="-51.95" y="-0.443" type="line"/>
		</contour>
	</outline>
</glyph>
<glyph name="to-45" format="2">
	<advance width="100"/>
	<outline>
		<contour>
			<point x="-48.048" y="0.434" type="line"/>
			<point x="51.952" y="-449.566" type="line"/>
			<point x="48.048" y="-450.434" type="line"/>
			<point x="-51.952" y="-0.434" type="line"/>
		</contour>
	</outline>
</glyph>
<glyph name="to-46" format="2">
	<advance width="100"/>
	<outline>
		<contour>
			<point x="-48.046" y="0.425" type="line"/>
			<point x="51.954" y="-459.575" type="line"/>
			<point x="48.046" y="-460.425" type="line"/>
			<point x="-51.954" y="-0.425" type="line"/>
		</contour>
	</outline>
</glyph>
<glyph name="to-5" format="2">
	<advance width="100"/>
	<outline>
		<contour>
			<point x="-49.106" y="1.789" type="line"/>
			<point x="50.894" y="-48.211" type="line"/>
			<point x="49.106" y="-51.789" type="line"/>
			<point x="-50.894" y="-1.789" type="line"/>
		</contour>
	</outline>
</glyph>
<glyph name="to-52" format="2">
	<advance width="100"/>
	<outline>
		<contour>
			<point x="-48.036" y="0.378" type="line"/>
			<point x="51.964" y="-519.622" type="line"/>
			<point x="48.036" y="-520.378" type="line"/>
			<point x="-51.964" y="-0.378" type="line"/>
		</contour>
	</outline>
</glyph>
<glyph name="to-53" format="2">
	<advance width="100"/>
	<outline>
		<contour>
			<point x="-48.035" y="0.371" type="line"/>
			<point x="51.965" y="-529.629" type="line"/>
			<point x="48.035" y="-530.371" type="line"/>
			<point x="-51.965" y="-0.371" type="line"/>
		</contour>
	</outline>
</glyph>
<glyph name="to-59" format="2">
	<advance width="100"/>
	<outline>
		<contour>
			<point x="-48.028" y="0.334" type="line"/>
			<point x="51.972" y="-589.666" type="line"/>
			<point x="48.028" y="-590.334" type="line"/>
			<point x="-51.972" y="-0.334" type="line"/>
		</contour>
	</outline>
</glyph>
<glyph name="to-6" format="2">
	<advance width="100"/>
	<outline>
		<contour>
			<point x="-48.971" y="1.715" type="line"/>
			<point x="51.029" y="-58.285" type="line"/>
			<point x="48.971" y="-61.715" type="line"/>
			<point x="-51.029" y="-1.715" type="line"/>
		</contour>
	</outline>
</glyph>
<glyph name="to-60" format="2">
	<advance width="100"/>
	<outline>
		<contour>
			<point x="-48.027" y="0.329" type="line"/>
			<point x="51.973" y="-599.671" type="line"/>
			<point x="48.027" y="-600.329" type="line"/>
			<point x="-51.973" y="-0.329" type="line"/>
		</contour>
	</outline>
</glyph>
<glyph name="to-61" format="2">
	<advance width="100"/>
	<outline>
		<contour>
			<point x="-48.026" y="0.324" type="line"/>
			<point x="51.974" y="-609.676" type="line"/>
			<point x="48.026" y="-610.324" type="line"/>
			<point x="-51.974" y="-0.324" type="line"/>
		</contour>
	</outline>
</glyph>
<glyph name="to-62" format="2">
	<advance width="100"/>
	<outline>
		<contour>
			<point x="-47.532" y="0.398" type="line"/>
			<point x="52.468" y="-619.602" type="line"/>
			<point x="47.532" y="-620.398" type="line"/>
			<point x="-52.468" y="-0.398" type="line"/>
		</contour>
	</outline>
</glyph>
<glyph name="to-63" format="2">
	<advance width="100"/>
	<outline>
		<contour>
			<point x="-48.025" y="0.314" type="line"/>
			<point x="51.975" y="-629.686" type="line"/>
			<point x="48.025" y="-630.314" type="line"/>
			<point x="-51.975" y="-0.314" type="line"/>
		</contour>
	</outline>
</glyph>
<glyph name="to-65" format="2">
	<advance width="100"/>
	<outline>
		<contour>
			<point x="-48.023" y="0.304" type="line"/>
			<point x="51.977" y="-649.696" type="line"/>
			<point x="48.023" y="-650.304" type="line"/>
			<point x="-51.977" y="-0.304" type="line"/>
		</contour>
	</outline>
</glyph>
<glyph name="to-68" format="2">
	<advance width="100"/>
	<outline>
		<contour>
			<point x="-48.021" y="0.291" type="line"/>
			<point x="51.979" y="-679.709" type="line"/>
			<point x="48.021" y="-680.291" type="line"/>
			<point x="-51.979" y="-0.291" type="line"/>
		</contour>
	</outline>
</glyph>
<glyph name="to-69" format="2">
	<advance width="100"/>
	<outline>
		<contour>
			<point x="-48.021" y="0.287" type="line"/>
			<point x="51.979" y="-689.713" type="line"/>
			<point x="48.021" y="-690.287" type="line"/>
			<point x="-51.979" y="-0.287" type="line"/>
		</contour>
	</outline>
</glyph>
<glyph name="to-70" format="2">
	<advance width="100"/>
	<outline>
		<contour>
			<point x="-48.02" y="0.283" type="line"/>
			<point x="51.98" y="-699.717" type="line"/>
			<point x="48.02" y="-700.283" type="line"/>
			<point x="-51.98" y="-0.283" type="line"/>
		</contour>
	</outline>
</glyph>
<glyph name="to-71" format="2">
	<advance width="100"/>
	<outline>
		<contour>
			<point x="-47.524" y="0.349" type="line"/>
			<point x="52.476" y="-709.651" type="line"/>
			<point x="47.524" y="-710.349" type="line"/>
			<point x="-52.476" y="-0.349" type="line"/>
		</contour>
	</outline>
</glyph>
<glyph name="to-72" format="2">
	<advance width="100"/>
	<outline>
		<contour>
			<point x="-47.524" y="0.344" type="line"/>
			<point x="52.476" y="-719.656" type="line"/>
			<point x="47.524" y="-720.344" type="line"/>
			<point x="-52.476" y="-0.344" type="line"/>
		</contour>
	</outline>
</glyph>
<glyph name="to-73" format="2">
	<advance width="100"/>
	<outline>
		<contour>
			<point x="-48.019" y="0.271" type="line"/>
			<point x="51.981" y="-729.729" type="line"/>
			<point x="48.019" y="-730.271" type="line"/>
			<point x="-51.981" y="-0.271" type="line"/>
		</contour>
	</outline>
</glyph>
<glyph name="to-74" format="2">
	<advance width="100"/>
	<outline>
		<contour>
			<point x="-47.523" y="0.335" type="line"/>
			<point x="52.477" y="-739.665" type="line"/>
			<point x="47.523" y="-740.335" type="line"/>
			<point x="-52.477" y="-0.335" type="line"/>
		</contour>
	</outline>
</glyph>
<glyph name="to-78" format="2">
	<advance width="100"/>
	<outline>
		<contour>
			<point x="-47.52" y="0.318" type="line"/>
			<point x="52.48" y="-779.682" type="line"/>
			<point x="47.52" y="-780.318" type="line"/>
			<point x="-52.48" y="-0.318" type="line"/>
		</contour>
	</outline>
</glyph>
<glyph name="to-79" format="2">
	<advance width="100"/>
	<outline>
		<contour>
			<point x="-48.016" y="0.251" type="line"/>
			<point x="51.984" y="-789.749" type="line"/>
			<point x="48.016" y="-790.251" type="line"/>
			<point x="-51.984" y="-0.251" type="line"/>
		</contour>
	</outline>
</glyph>
<glyph name="to-80" format="2">
	<advance width="100"/>
	<outline>
		<contour>
			<point x="-48.015" y="0.248" type="line"/>
			<point x="51.985" y="-799.752" type="line"/>
			<point x="48.015" y="-800.248" type="line"/>
			<point x="-51.985" y="-0.248" type="line"/>
		</contour>
	</outline>
</glyph>
<glyph name="to-82" format="2">
	<advance width="100"/>
	<outline>
		<contour>
			<point x="-48.015" y="0.242" type="line"/>
			<point x="51.985" y="-819.758" type="line"/>
			<point x="48.015" y="-820.242" type="line"/>
			<point x="-51.985" y="-0.242" type="line"/>
		</contour>
	</outline>
</glyph>
<glyph name="to-83" format="2">
	<advance width="100"/>
	<outline>
		<contour>
			<point x="-48.014" y="0.239" type="line"/>
			<point x="51.986" y="-829.761" type="line"/>
			<point x="48.014" y="-830.239" type="line"/>
			<point x="-51.986" y="-0.239" type="line"/>
		</contour>
	</outline>
</glyph>
<glyph name="to-84" format="2">
	<advance width="100"/>
	<outline>
		<contour>
			<point x="-48.014" y="0.236" type="line"/>
			<point x="51.986" y="-839.764" type="line"/>
			<point x="48.014" y="-840.236" type="line"/>
			<point x="-51.986" y="-0.236" type="line"/>
		</contour>
	</outline>
</glyph>
<glyph name="to-85" format="2">
	<advance width="100"/>
	<outline>
		<contour>
			<point x="-47.517" y="0.292" type="line"/>
			<point x="52.483" y="-849.708" type="line"/>
			<point x="47.517" y="-850.292" type="line"/>
			<point x="-52.483" y="-0.292" type="line"/>
		</contour>
	</outline>
</glyph>
<glyph name="to-86" format="2">
	<advance width="100"/>
	<outline>
		<contour>
			<point x="-48.013" y="0.231" type="line"/>
			<point x="51.987" y="-859.769" type="line"/>
			<point x="48.013" y="-860.231" type="line"/>
			<point x="-51.987" y="-0.231" type="line"/>
		</contour>
	</outline>
</glyph>
<glyph name="to-87" format="2">
	<advance width="100"/>
	<outline>
		<contour>
			<point x="-48.013" y="0.228" type="line"/>
			<point x="51.987" y="-869.772" type="line"/>
			<point x="48.013" y="-870.228" type="line"/>
			<point x="-51.987" y="-0.228" type="line"/>
		</contour>
	</outline>
</glyph>
<glyph name="to-88" format="2">
	<advance width="100"/>
	<outline>
		<contour>
			<point x="-48.013" y="0.226" type="line"/>
			<point x="51.987" y="-879.774" type="line"/>
			<point x="48.013" y="-880.226" type="line"/>
			<point x="-51.987" y="-0.226" type="line"/>
		</contour>
	</outline>
</glyph>
<glyph name="to-9" format="2">
	<advance width="100"/>
	<outline>
		<contour>
			<point x="-48.662" y="1.487" type="line"/>
			<point x="51.338" y="-88.513" type="line"/>
			<point x="48.662" y="-91.487" type="line"/>
			<point x="-51.338" y="-1.487" type="line"/>
		</contour>
	</outline>
</glyph>
<glyph name="to-93" format="2">
	<advance width="100"/>
	<outline>
		<contour>
			<point x="-48.011" y="0.214" type="line"/>
			<point x="51.989" y="-929.786" type="line"/>
			<point x="48.011" y="-930.214" type="line"/>
			<point x="-51.989" y="-0.214" type="line"/>
		</contour>
	</outline>
</glyph>
<glyph name="to-94" format="2">
	<advance width="100"/>
	<outline>
		<contour>
			<point x="-47.514" y="0.264" type="line"/>
			<point x="52.486" y="-939.736" type="line"/>
			<point x="47.514" y="-940.264" type="line"/>
			<point x="-52.486" y="-0.264" type="line"/>
		</contour>
	</outline>
</glyph>
<glyph name="to-96" format="2">
	<advance width="100"/>
	<outline>
		<contour>
			<point x="-48.011" y="0.207" type="line"/>
			<point x="51.989" y="-959.793" type="line"/>
			<point x="48.011" y="-960.207" type="line"/>
			<point x="-51.989" y="-0.207" type="line"/>
		</contour>
	</outline>
</glyph>
<glyph name="to-97" format="2">
	<advance width="100"/>
	<outline>
		<contour>
			<point x="-47.513" y="0.256" type="line"/>
			<point x="52.487" y="-969.744" type="line"/>
			<point x="47.513" y="-970.256" type="line"/>
			<point x="-52.487" y="-0.256" type="line"/>
		</contour>
	</outline>
</glyph>
<glyph name="to-99" format="2">
	<advance width="100"/>
	<outline>
		<contour>
			<point x="-47.513" y="0.251" type="line"/>
			<point x="52.487" y="-989.749" type="line"/>
			<point x="47.513" y="-990.251" type="line"/>
			<point x="-52.487" y="-0.251" type="line"/>
		</contour>
	</outline>
</glyph>
<glyph name="to10" format="2">
	<advance width="100"/>
	<outline>
		<contour>
			<point x="-51.414" y="1.414" type="line"/>
			<point x="48.586" y="101.414" type="line"/>
			<point x="51.414" y="98.586" type="line"/>
			<point x="-48.586" y="-1.414" type="line"/>
		</contour>
	</outline>
</glyph>
<glyph name="to100" format="2">
	<advance width="100"/>
	<outline>
		<contour>
			<point x="-51.99" y="0.199" type="line"/>
			<point x="48.01" y="1000.199" type="line"/>
			<point x="51.99" y="999.801" type="line"/>
			<point x="-48.01" y="-0.199" type="line"/>
		</contour>
	</outline>
</glyph>
<glyph name="to103" format="2">
	<advance width="100"/>
	<outline>
		<contour>
			<point x="-51.991" y="0.193" type="line"/>
			<point x="48.009" y="1030.193" type="line"/>
			<point x="51.991" y="1029.807" type="line"/>
			<point x="-48.009" y="-0.193" type="line"/>
		</contour>
	</outline>
</glyph>
<glyph name="to104" format="2">
	<advance width="100"/>
	<outline>
		<contour>
			<point x="-51.991" y="0.191" type="line"/>
			<point x="48.009" y="1040.191" type="line"/>
			<point x="51.991" y="1039.809" type="line"/>
			<point x="-48.009" y="-0.191" type="line"/>
		</contour>
	</outline>
</glyph>
<glyph name="to106" format="2">
	<advance width="100"/>
	<outline>
		<contour>
			<point x="-51.991" y="0.188" type="line"/>
			<point x="48.009" y="1060.188" type="line"/>
			<point x="51.991" y="1059.812" type="line"/>
			<point x="-48.009" y="-0.188" type="line"/>
		</contour>
	</outline>
</glyph>
<glyph name="to108" format="2">
	<advance width="100"/>
	<outline>
		<contour>
			<point x="-51.991" y="0.184" type="line"/>
			<point x="48.009" y="1080.184" type="line"/>
			<point x="51.991" y="1079.816" type="line"/>
			<point x="-48.009" y="-0.184" type="line"/>
		</contour>
	</outline>
</glyph>
<glyph name="to109" format="2">
	<advance width="100"/>
	<outline>
		<contour>
			<point x="-51.992" y="0.183" type="line"/>
			<point x="48.008" y="1090.183" type="line"/>
			<point x="51.992" y="1089.817" type="line"/>
			<point x="-48.008" y="-0.183" type="line"/>
		</contour>
	</outline>
</glyph>
<glyph name="to11" format="2">
	<advance width="100"/>
	<outline>
		<contour>
			<point x="-51.48" y="1.345" type="line"/>
			<point x="48.52" y="111.345" type="line"/>
			<point x="51.48" y="108.655" type="line"/>
			<point x="-48.52" y="-1.345" type="line"/>
		</contour>
	</outline>
</glyph>
<glyph name="to111" format="2">
	<advance width="100"/>
	<outline>
		<contour>
			<point x="-52.49" y="0.224" type="line"/>
			<point x="47.51" y="1110.224" type="line"/>
			<point x="52.49" y="1109.776" type="line"/>
			<point x="-47.51" y="-0.224" type="line"/>
		</contour>
	</outline>
</glyph>
<glyph name="to113" format="2">
	<advance width="100"/>
	<outline>
		<contour>
			<point x="-51.992" y="0.176" type="line"/>
			<point x="48.008" y="1130.176" type="line"/>
			<point x="51.992" y="1129.824" type="line"/>
			<point x="-48.008" y="-0.176" type="line"/>
		</contour>
	</outline>
</glyph>
<glyph name="to114" format="2">
	<advance width="100"/>
	<outline>
		<contour>
			<point x="-52.49" y="0.218" type="line"/>
			<point x="47.51" y="1140.218" type="line"/>
			<point x="52.49" y="1139.782" type="line"/>
			<point x="-47.51" y="-0.218" type="line"/>
		</contour>
	</outline>
</glyph>
<glyph name="to115" format="2">
	<advance width="100"/>
	<outline>
		<contour>
			<point x="-52.491" y="0.217" type="line"/>
			<point x="47.509" y="1150.217" type="line"/>
			<point x="52.491" y="1149.783" type="line"/>
			<point x="-47.509" y="-0.217" type="line"/>
		</contour>
	</outline>
</glyph>
<glyph name="to116" format="2">
	<advance width="100"/>
	<outline>
		<contour>
			<point x="-52.491" y="0.215" type="line"/>
			<point x="47.509" y="1160.215" type="line"/>
			<point x="52.491" y="1159.785" type="line"/>
			<point x="-47.509" y="-0.215" type="line"/>
		</contour>
	</outline>
</glyph>
<glyph name="to117" format="2">
	<advance width="100"/>
	<outline>
		<contour>
			<point x="-52.491" y="0.213" type="line"/>
			<point x="47.509" y="1170.213" type="line"/>
			<point x="52.491" y="1169.787" type="line"/>
			<point x="-47.509" y="-0.213" type="line"/>
		</contour>
	</outline>
</glyph>
<glyph name="to118" format="2">
	<advance width="100"/>
	<outline>
		<contour>
			<point x="-51.993" y="0.169" type="line"/>
			<point x="48.007" y="1180.169" type="line"/>
			<point x="51.993" y="1179.831" type="line"/>
			<point x="-48.007" y="-0.169" type="line"/>
		</contour>
	</outline>
</glyph>
<glyph name="to12" format="2">
	<advance width="100"/>
	<outline>
		<contour>
			<point x="-51.536" y="1.28" type="line"/>
			<point x="48.464" y="121.28" type="line"/>
			<point x="51.536" y="118.72" type="line"/>
			<point x="-48.464" y="-1.28" type="line"/>
		</contour>
	</outline>
</glyph>
<glyph name="to120" format="2">
	<advance width="100"/>
	<outline>
		<contour>
			<point x="-51.993" y="0.166" type="line"/>
			<point x="48.007" y="1200.166" type="line"/>
			<point x="51.993" y="1199.834" type="line"/>
			<point x="-48.007" y="-0.166" type="line"/>
		</contour>
	</outline>
</glyph>
<glyph name="to123" format="2">
	<advance width="100"/>
	<outline>
		<contour>
			<point x="-51.993" y="0.162" type="line"/>
			<point x="48.007" y="1230.162" type="line"/>
			<point x="51.993" y="1229.838" type="line"/>
			<point x="-48.007" y="-0.162" type="line"/>
		</contour>
	</outline>
</glyph>
<glyph name="to124" format="2">
	<advance width="100"/>
	<outline>
		<contour>
			<point x="-51.994" y="0.161" type="line"/>
			<point x="48.006" y="1240.161" type="line"/>
			<point x="51.994" y="1239.839" type="line"/>
			<point x="-48.006" y="-0.161" type="line"/>
		</contour>
	</outline>
</glyph>
<glyph name="to125" format="2">
	<advance width="100"/>
	<outline>
		<contour>
			<point x="-52.492" y="0.199" type="line"/>
			<point x="47.508" y="1250.199" type="line"/>
			<point x="52.492" y="1249.801" type="line"/>
			<point x="-47.508" y="-0.199" type="line"/>
		</contour>
	</outline>
</glyph>
<glyph name="to18" format="2">
	<advance width="100"/>
	<outline>
		<contour>
			<point x="-51.748" y="0.971" type="line"/>
			<point x="48.252" y="180.971" type="line"/>
			<point x="51.748" y="179.029" type="line"/>
			<point x="-48.252" y="-0.971" type="line"/>
		</contour>
	</outline>
</glyph>
<glyph name="to2" format="2">
	<advance width="100"/>
	<outline>
		<contour>
			<point x="-50.49" y="2.451" type="line"/>
			<point x="49.51" y="22.451" type="line"/>
			<point x="50.49" y="17.549" type="line"/>
			<point x="-49.51" y="-2.451" type="line"/>
		</contour>
	</outline>
</glyph>
<glyph name="to21" format="2">
	<advance width="100"/>
	<outline>
		<contour>
			<point x="-51.806" y="0.86" type="line"/>
			<point x="48.194" y="210.86" type="line"/>
			<point x="51.806" y="209.14" type="line"/>
			<point x="-48.194" y="-0.86" type="line"/>
		</contour>
	</outline>
</glyph>
<glyph name="to22" format="2">
	<advance width="100"/>
	<outline>
		<contour>
			<point x="-51.821" y="0.828" type="line"/>
			<point x="48.179" y="220.828" type="line"/>
			<point x="51.821" y="219.172" type="line"/>
			<point x="-48.179" y="-0.828" type="line"/>
		</contour>
	</outline>
</glyph>
<glyph name="to24" format="2">
	<advance width="100"/>
	<outline>
		<contour>
			<point x="-51.846" y="0.769" type="line"/>
			<point x="48.154" y="240.769" type="line"/>
			<point x="51.846" y="239.231" type="line"/>
			<point x="-48.154" y="-0.769" type="line"/>
		</contour>
	</outline>
</glyph>
<glyph name="to26" format="2">
	<advance width="100"/>
	<outline>
		<contour>
			<point x="-51.867" y="0.718" type="line"/>
			<point x="48.133" y="260.718" type="line"/>
			<point x="51.867" y="259.282" type="line"/>
			<point x="-48.133" y="-0.718" type="line"/>
		</contour>
	</outline>
</glyph>
<glyph name="to27" format="2">
	<advance width="100"/>
	<outline>
		<contour>
			<point x="-51.875" y="0.695" type="line"/>
			<point x="48.125" y="270.695" type="line"/>
			<point x="51.875" y="269.305" type="line"/>
			<point x="-48.125" y="-0.695" type="line"/>
		</contour>
	</outline>
</glyph>
<glyph name="to29" format="2">
	<advance width="100"/>
	<outline>
		<contour>
			<point x="-52.363" y="0.815" type="line"/>
			<point x="47.637" y="290.815" type="line"/>
			<point x="52.363" y="289.185" type="line"/>
			<point x="-47.637" y="-0.815" type="line"/>
		</contour>
	</outline>
</glyph>
<glyph name="to3" format="2">
	<advance width="100"/>
	<outline>
		<contour>
			<point x="-50.575" y="1.916" type="line"/>
			<point x="49.425" y="31.916" type="line"/>
			<point x="50.575" y="28.084" type="line"/>
			<point x="-49.425" y="-1.916" type="line"/>
		</contour>
	</outline>
</glyph>
<glyph name="to31" format="2">
	<advance width="100"/>
	<outline>
		<contour>
			<point x="-51.903" y="0.614" type="line"/>
			<point x="48.097" y="310.614" type="line"/>
			<point x="51.903" y="309.386" type="line"/>
			<point x="-48.097" y="-0.614" type="line"/>
		</contour>
	</outline>
</glyph>
<glyph name="to33" format="2">
	<advance width="100"/>
	<outline>
		<contour>
			<point x="-52.393" y="0.725" type="line"/>
			<point x="47.607" y="330.725" type="line"/>
			<point x="52.393" y="329.275" type="line"/>
			<point x="-47.607" y="-0.725" type="line"/>
		</contour>
	</outline>
</glyph>
<glyph name="to34" format="2">
	<advance width="100"/>
	<outline>
		<contour>
			<point x="-51.919" y="0.564" type="line"/>
			<point x="48.081" y="340.564" type="line"/>
			<point x="51.919" y="339.436" type="line"/>
			<point x="-48.081" y="-0.564" type="line"/>
		</contour>
	</outline>
</glyph>
<glyph name="to35" format="2">
	<advance width="100"/>
	<outline>
		<contour>
			<point x="-51.923" y="0.549" type="line"/>
			<point x="48.077" y="350.549" type="line"/>
			<point x="51.923" y="349.451" type="line"/>
			<point x="-48.077" y="-0.549" type="line"/>
		</contour>
	</outline>
</glyph>
<glyph name="to37" format="2">
	<advance width="100"/>
	<outline>
		<contour>
			<point x="-51.931" y="0.522" type="line"/>
			<point x="48.069" y="370.522" type="line"/>
			<point x="51.931" y="369.478" type="line"/>
			<point x="-48.069" y="-0.522" type="line"/>
		</contour>
	</outline>
</glyph>
<glyph name="to38" format="2">
	<advance width="100"/>
	<outline>
		<contour>
			<point x="-52.418" y="0.636" type="line"/>
			<point x="47.582" y="380.636" type="line"/>
			<point x="52.418" y="379.364" type="line"/>
			<point x="-47.582" y="-0.636" type="line"/>
		</contour>
	</outline>
</glyph>
<glyph name="to40" format="2">
	<advance width="100"/>
	<outline>
		<contour>
			<point x="-51.94" y="0.485" type="line"/>
			<point x="48.06" y="400.485" type="line"/>
			<point x="51.94" y="399.515" type="line"/>
			<point x="-48.06" y="-0.485" type="line"/>
		</contour>
	</outline>
</glyph>
<glyph name="to41" format="2">
	<advance width="100"/>
	<outline>
		<contour>
			<point x="-51.943" y="0.474" type="line"/>
			<point x="48.057" y="410.474" type="line"/>
			<point x="51.943" y="409.526" type="line"/>
			<point x="-48.057" y="-0.474" type="line"/>
		</contour>
	</outline>
</glyph>
<glyph name="to42" format="2">
	<advance width="100"/>
	<outline>
		<contour>
			<point x="-51.946" y="0.463" type="line"/>
			<point x="48.054" y="420.463" type="line"/>
			<point x="51.946" y="419.537" type="line"/>
			<point x="-48.054" y="-0.463" type="line"/>
		</contour>
	</outline>
</glyph>
<glyph name="to43" format="2">
	<advance width="100"/>
	<outline>
		<contour>
			<point x="-51.948" y="0.453" type="line"/>
			<point x="48.052" y="430.453" type="line"/>
			<point x="51.948" y="429.547" type="line"/>
			<point x="-48.052" y="-0.453" type="line"/>
		</contour>
	</outline>
</glyph>
<glyph name="to45" format="2">
	<advance width="100"/>
	<outline>
		<contour>
			<point x="-52.44" y="0.542" type="line"/>
			<point x="47.56" y="450.542" type="line"/>
			<point x="52.44" y="449.458" type="line"/>
			<point x="-47.56" y="-0.542" type="line"/>
		</contour>
	</outline>
</glyph>
<glyph name="to47" format="2">
	<advance width="100"/>
	<outline>
		<contour>
			<point x="-51.956" y="0.416" type="line"/>
			<point x="48.044" y="470.416" type="line"/>
			<point x="51.956" y="469.584" type="line"/>
			<point x="-48.044" y="-0.416" type="line"/>
		</contour>
	</outline>
</glyph>
<glyph name="to48" format="2">
	<advance width="100"/>
	<outline>
		<contour>
			<point x="-51.958" y="0.408" type="line"/>
			<point x="48.042" y="480.408" type="line"/>
			<point x="51.958" y="479.592" type="line"/>
			<point x="-48.042" y="-0.408" type="line"/>
		</contour>
	</outline>
</glyph>
<glyph name="to49" format="2">
	<advance width="100"/>
	<outline>
		<contour>
			<point x="-51.96" y="0.4" type="line"/>
			<point x="48.04" y="490.4" type="line"/>
			<point x="51.96" y="489.6" type="line"/>
			<point x="-48.04" y="-0.4" type="line"/>
		</contour>
	</outline>
</glyph>
<glyph name="to50" format="2">
	<advance width="100"/>
	<outline>
		<contour>
			<point x="-51.961" y="0.392" type="line"/>
			<point x="48.039" y="500.392" type="line"/>
			<point x="51.961" y="499.608" type="line"/>
			<point x="-48.039" y="-0.392" type="line"/>
		</contour>
	</outline>
</glyph>
<glyph name="to51" format="2">
	<advance width="100"/>
	<outline>
		<contour>
			<point x="-51.963" y="0.385" type="line"/>
			<point x="48.037" y="510.385" type="line"/>
			<point x="51.963" y="509.615" type="line"/>
			<point x="-48.037" y="-0.385" type="line"/>
		</contour>
	</outline>
</glyph>
<glyph name="to54" format="2">
	<advance width="100"/>
	<outline>
		<contour>
			<point x="-51.967" y="0.364" type="line"/>
			<point x="48.033" y="540.364" type="line"/>
			<point x="51.967" y="539.636" type="line"/>
			<point x="-48.033" y="-0.364" type="line"/>
		</contour>
	</outline>
</glyph>
<glyph name="to55" format="2">
	<advance width="100"/>
	<outline>
		<contour>
			<point x="-51.968" y="0.358" type="line"/>
			<point x="48.032" y="550.358" type="line"/>
			<point x="51.968" y="549.642" type="line"/>
			<point x="-48.032" y="-0.358" type="line"/>
		</contour>
	</outline>
</glyph>
<glyph name="to56" format="2">
	<advance width="100"/>
	<outline>
		<contour>
			<point x="-52.461" y="0.439" type="line"/>
			<point x="47.539" y="560.439" type="line"/>
			<point x="52.461" y="559.561" type="line"/>
			<point x="-47.539" y="-0.439" type="line"/>
		</contour>
	</outline>
</glyph>
<glyph name="to57" format="2">
	<advance width="100"/>
	<outline>
		<contour>
			<point x="-51.97" y="0.346" type="line"/>
			<point x="48.03" y="570.346" type="line"/>
			<point x="51.97" y="569.654" type="line"/>
			<point x="-48.03" y="-0.346" type="line"/>
		</contour>
	</outline>
</glyph>
<glyph name="to58" format="2">
	<advance width="100"/>
	<outline>
		<contour>
			<point x="-51.971" y="0.34" type="line"/>
			<point x="48.029" y="580.34" type="line"/>
			<point x="51.971" y="579.66" type="line"/>
			<point x="-48.029" y="-0.34" type="line"/>
		</contour>
	</outline>
</glyph>
<glyph name="to62" format="2">
	<advance width="100"/>
	<outline>
		<contour>
			<point x="-51.974" y="0.318" type="line"/>
			<point x="48.026" y="620.318" type="line"/>
			<point x="51.974" y="619.682" type="line"/>
			<point x="-48.026" y="-0.318" type="line"/>
		</contour>
	</outline>
</glyph>
<glyph name="to63" format="2">
	<advance width="100"/>
	<outline>
		<contour>
			<point x="-52.469" y="0.392" type="line"/>
			<point x="47.531" y="630.392" type="line"/>
			<point x="52.469" y="629.608" type="line"/>
			<point x="-47.531" y="-0.392" type="line"/>
		</contour>
	</outline>
</glyph>
<glyph name="to64" format="2">
	<advance width="100"/>
	<outline>
		<contour>
			<point x="-51.976" y="0.309" type="line"/>
			<point x="48.024" y="640.309" type="line"/>
			<point x="51.976" y="639.691" type="line"/>
			<point x="-48.024" y="-0.309" type="line"/>
		</contour>
	</outline>
</glyph>
<glyph name="to66" format="2">
	<advance width="100"/>
	<outline>
		<contour>
			<point x="-52.472" y="0.375" type="line"/>
			<point x="47.528" y="660.375" type="line"/>
			<point x="52.472" y="659.625" type="line"/>
			<point x="-47.528" y="-0.375" type="line"/>
		</contour>
	</outline>
</glyph>
<glyph name="to67" format="2">
	<advance width="100"/>
	<outline>
		<contour>
			<point x="-51.978" y="0.295" type="line"/>
			<point x="48.022" y="670.295" type="line"/>
			<point x="51.978" y="669.705" type="line"/>
			<point x="-48.022" y="-0.295" type="line"/>
		</contour>
	</outline>
</glyph>
<glyph name="to7" format="2">
	<advance width="100"/>
	<outline>
		<contour>
			<point x="-51.147" y="1.638" type="line"/>
			<point x="48.853" y="71.638" type="line"/>
			<point x="51.147" y="68.362" type="line"/>
			<point x="-48.853" y="-1.638" type="line"/>
		</contour>
	</outline>
</glyph>
<glyph name="to75" format="2">
	<advance width="100"/>
	<outline>
		<contour>
			<point x="-51.982" y="0.264" type="line"/>
			<point x="48.018" y="750.264" type="line"/>
			<point x="51.982" y="749.736" type="line"/>
			<point x="-48.018" y="-0.264" type="line"/>
		</contour>
	</outline>
</glyph>
<glyph name="to76" format="2">
	<advance width="100"/>
	<outline>
		<contour>
			<point x="-51.983" y="0.261" type="line"/>
			<point x="48.017" y="760.261" type="line"/>
			<point x="51.983" y="759.739" type="line"/>
			<point x="-48.017" y="-0.261" type="line"/>
		</contour>
	</outline>
</glyph>
<glyph name="to77" format="2">
	<advance width="100"/>
	<outline>
		<contour>
			<point x="-51.983" y="0.258" type="line"/>
			<point x="48.017" y="770.258" type="line"/>
			<point x="51.983" y="769.742" type="line"/>
			<point x="-48.017" y="-0.258" type="line"/>
		</contour>
	</outline>
</glyph>
<glyph name="to8" format="2">
	<advance width="100"/>
	<outline>
		<contour>
			<point x="-51.562" y="1.952" type="line"/>
			<point x="48.438" y="81.952" type="line"/>
			<point x="51.562" y="78.048" type="line"/>
			<point x="-48.438" y="-1.952" type="line"/>
		</contour>
	</outline>
</glyph>
<glyph name="to81" format="2">
	<advance width="100"/>
	<outline>
		<contour>
			<point x="-52.481" y="0.306" type="line"/>
			<point x="47.519" y="810.306" type="line"/>
			<point x="52.481" y="809.694" type="line"/>
			<point x="-47.519" y="-0.306" type="line"/>
		</contour>
	</outline>
</glyph>
<glyph name="to84" format="2">
	<advance width="100"/>
	<outline>
		<contour>
			<point x="-52.482" y="0.296" type="line"/>
			<point x="47.518" y="840.296" type="line"/>
			<point x="52.482" y="839.704" type="line"/>
			<point x="-47.518" y="-0.296" type="line"/>
		</contour>
	</outline>
</glyph>
<glyph name="to85" format="2">
	<advance width="100"/>
	<outline>
		<contour>
			<point x="-51.986" y="0.234" type="line"/>
			<point x="48.014" y="850.234" type="line"/>
			<point x="51.986" y="849.766" type="line"/>
			<point x="-48.014" y="-0.234" type="line"/>
		</contour>
	</outline>
</glyph>
<glyph name="to86" format="2">
	<advance width="100"/>
	<outline>
		<contour>
			<point x="-52.483" y="0.289" type="line"/>
			<point x="47.517" y="860.289" type="line"/>
			<point x="52.483" y="859.711" type="line"/>
			<point x="-47.517" y="-0.289" type="line"/>
		</contour>
	</outline>
</glyph>
<glyph name="to89" format="2">
	<advance width="100"/>
	<outline>
		<contour>
			<point x="-51.987" y="0.223" type="line"/>
			<point x="48.013" y="890.223" type="line"/>
			<point x="51.987" y="889.777" type="line"/>
			<point x="-48.013" y="-0.223" type="line"/>
		</contour>
	</outline>
</glyph>
<glyph name="to90" format="2">
	<advance width="100"/>
	<outline>
		<contour>
			<point x="-51.988" y="0.221" type="line"/>
			<point x="48.012" y="900.221" type="line"/>
			<point x="51.988" y="899.779" type="line"/>
			<point x="-48.012" y="-0.221" type="line"/>
		</contour>
	</outline>
</glyph>
<glyph name="to91" format="2">
	<advance width="100"/>
	<outline>
		<contour>
			<point x="-52.485" y="0.273" type="line"/>
			<point x="47.515" y="910.273" type="line"/>
			<point x="52.485" y="909.727" type="line"/>
			<point x="-47.515" y="-0.273" type="line"/>
		</contour>
	</outline>
</glyph>
<glyph name="to92" format="2">
	<advance width="100"/>
	<outline>
		<contour>
			<point x="-51.988" y="0.216" type="line"/>
			<point x="48.012" y="920.216" type="line"/>
			<point x="51.988" y="919.784" type="line"/>
			<point x="-48.012" y="-0.216" type="line"/>
		</contour>
	</outline>
</glyph>
<glyph name="to95" format="2">
	<advance width="100"/>
	<outline>
		<contour>
			<point x="-51.989" y="0.209" type="line"/>
			<point x="48.011" y="950.209" type="line"/>
			<point x="51.989" y="949.791" type="line"/>
			<point x="-48.011" y="-0.209" type="line"/>
		</contour>
	</outline>
</glyph>
<glyph name="to97" format="2">
	<advance width="100"/>
	<outline>
		<contour>
			<point x="-51.989" y="0.205" type="line"/>
			<point x="48.011" y="970.205" type="line"/>
			<point x="51.989" y="969.795" type="line"/>
			<point x="-48.011" y="-0.205" type="line"/>
		</contour>
	</outline>
</glyph>
<glyph name="to98" format="2">
	<advance width="100"/>
	<outline>
		<contour>
			<point x="-51.99" y="0.203" type="line"/>
			<point x="48.01" y="980.203" type="line"/>
			<point x="51.99" y="979.797" type="line"/>
			<point x="-48.01" y="-0.203" type="line"/>
		</contour>
	</outline>
</glyph>
<glyph name="to99" format="2">
	<advance width="100"/>
	<outline>
		<contour>
			<point x="-51.99" y="0.201" type="line"/>
			<point x="48.01" y="990.201" type="line"/>
			<point x="51.99" y="989.799" type="line"/>
			<point x="-48.01" y="-0.201" type="line"/>
		</contour>
	</outline>
</glyph>
